<?xml version="1.0" standalone="no"?>
<!DOCTYPE svg PUBLIC "-//W3C//DTD SVG 20010904//EN"
 "http://www.w3.org/TR/2001/REC-SVG-20010904/DTD/svg10.dtd">
<svg version="1.0" xmlns="http://www.w3.org/2000/svg"
 width="687.000000pt" height="812.000000pt" viewBox="0 0 687.000000 812.000000"
 preserveAspectRatio="xMidYMid meet">
<metadata>
Created by potrace 1.16, written by Peter Selinger 2001-2019
</metadata>
<g transform="translate(0.000000,812.000000) scale(0.100000,-0.100000)"
fill="#000000" stroke="none">
<path d="M5105 7842 c-54 -25 -88 -68 -143 -179 -25 -51 -50 -93 -55 -93 -5 0
-55 16 -110 35 -121 41 -231 66 -427 97 -138 22 -167 23 -611 21 -523 -3 -521
-3 -749 -79 -248 -83 -337 -105 -440 -109 -129 -4 -220 -38 -382 -142 -69 -43
-134 -104 -267 -246 -35 -37 -91 -91 -125 -120 -33 -28 -91 -80 -127 -114 -85
-80 -105 -85 -185 -44 -34 17 -67 38 -74 46 -18 22 -108 70 -165 89 -27 8 -95
24 -150 35 -55 10 -130 31 -165 45 -36 15 -85 31 -109 37 -24 5 -63 25 -86 45
-56 46 -98 52 -150 22 -55 -32 -92 -97 -105 -183 -14 -99 -12 -319 4 -455 15
-124 11 -175 -23 -320 -11 -47 -27 -143 -36 -215 -10 -74 -27 -160 -42 -200
-13 -38 -29 -87 -34 -107 -5 -20 -18 -60 -30 -89 -60 -154 -77 -358 -40 -478
29 -95 154 -282 208 -314 38 -22 202 -67 246 -67 63 0 70 -26 33 -115 l-15
-36 -40 21 c-22 11 -55 20 -73 20 -18 1 -62 7 -98 15 -85 19 -170 19 -196 0
-12 -8 -32 -38 -45 -67 -21 -48 -23 -64 -19 -173 7 -219 4 -288 -13 -350 -9
-33 -22 -79 -29 -102 -11 -38 -10 -46 8 -70 24 -32 59 -43 94 -30 14 5 48 9
75 8 28 -1 73 5 100 14 92 28 102 22 131 -75 17 -58 109 -149 194 -194 51 -26
56 -33 73 -85 34 -110 20 -138 -68 -127 -47 5 -57 3 -81 -18 -38 -32 -38 -80
1 -138 42 -61 169 -185 244 -238 90 -63 105 -86 102 -157 -2 -77 -35 -289 -68
-443 -19 -88 -27 -155 -28 -226 0 -92 2 -105 30 -159 73 -142 198 -161 260
-39 22 42 25 133 15 454 l-5 145 44 100 c24 55 46 102 48 105 12 13 23 -33 23
-100 1 -41 6 -95 11 -120 6 -25 14 -204 17 -399 7 -346 7 -354 28 -368 19 -12
24 -12 38 2 18 18 20 137 7 315 -7 85 5 318 16 330 13 14 22 -35 20 -110 -1
-71 3 -98 27 -165 27 -76 29 -90 31 -265 2 -134 7 -201 19 -243 11 -40 16 -98
16 -187 0 -140 8 -175 40 -185 30 -9 75 12 89 41 14 31 14 161 0 314 -9 102
-8 122 5 148 52 100 156 76 171 -39 4 -30 18 -98 30 -152 23 -93 24 -108 18
-360 -5 -228 -4 -270 11 -320 12 -43 23 -61 42 -69 20 -9 28 -8 41 5 18 18 22
68 41 537 10 229 18 266 70 313 19 18 20 17 42 -18 12 -19 30 -40 40 -45 30
-16 82 -12 124 11 21 11 44 18 51 16 8 -4 15 -89 25 -309 16 -376 17 -458 6
-833 -9 -303 -5 -357 26 -397 24 -30 55 -31 83 -3 26 25 26 27 21 133 -13 257
-17 1002 -7 1142 21 274 71 440 131 440 13 0 20 -11 25 -37 10 -57 22 -73 55
-73 29 0 70 38 70 67 0 19 25 27 48 14 10 -5 32 -38 48 -73 27 -59 29 -73 32
-203 2 -82 -4 -207 -13 -300 -37 -365 -32 -471 27 -520 37 -31 62 -32 93 0 30
29 31 60 9 165 -21 93 -23 356 -5 450 16 80 45 150 64 150 25 0 47 -37 57 -95
16 -101 58 -141 141 -133 69 7 88 28 98 109 7 64 7 64 18 29 7 -26 5 -86 -8
-230 -22 -233 -27 -511 -10 -555 17 -42 51 -75 76 -75 31 0 71 41 85 86 6 22
15 152 20 290 11 296 21 364 67 462 31 64 37 90 49 215 25 242 35 287 67 311
28 21 28 21 40 1 22 -37 26 -89 15 -209 -15 -174 -9 -258 21 -290 14 -14 35
-26 48 -26 57 0 78 62 87 265 10 193 17 245 32 245 7 0 20 -13 28 -28 48 -93
71 -568 42 -852 -23 -223 -4 -345 54 -345 54 0 57 52 34 600 -7 169 4 306 41
490 27 135 53 221 79 261 l18 26 22 -21 c26 -26 27 -87 8 -364 -8 -103 -11
-211 -7 -240 10 -76 38 -133 74 -151 42 -22 56 -20 92 12 28 25 32 36 38 101
4 40 3 134 -2 210 -23 341 -4 637 46 705 11 16 17 17 36 7 40 -22 44 -52 46
-353 1 -273 2 -289 21 -315 29 -39 59 -41 77 -6 11 21 16 93 20 298 5 266 13
325 41 325 34 0 41 -30 41 -187 0 -160 5 -178 45 -170 13 2 14 27 11 172 -2
141 0 175 13 200 9 18 16 55 16 90 0 70 9 90 38 81 55 -18 66 -134 42 -432
-15 -186 -10 -213 65 -356 60 -115 91 -148 136 -148 41 0 94 50 107 102 26
108 34 158 29 189 -28 183 -31 235 -19 438 15 246 39 396 75 468 28 53 78 99
101 90 7 -3 24 -27 37 -54 21 -42 24 -61 22 -143 -1 -52 -14 -183 -28 -292
-38 -299 -32 -428 24 -491 50 -55 118 -34 164 51 52 97 58 216 22 502 -20 164
-23 360 -6 417 6 24 26 66 44 95 31 50 32 53 29 155 l-3 104 28 -3 28 -3 8
-130 c7 -115 3 -359 -7 -438 -9 -75 42 -157 80 -126 18 15 17 67 -7 386 l-13
182 31 93 c18 51 40 135 49 185 l17 93 -26 99 c-42 155 -34 351 14 351 38 0
49 27 43 99 -6 56 -3 73 15 108 25 50 36 59 46 35 14 -32 17 -306 5 -467 -6
-88 -14 -201 -17 -252 l-6 -92 31 -30 c38 -39 78 -41 94 -7 8 19 7 54 -3 138
-15 133 -15 775 2 878 19 128 67 239 56 130 -4 -30 -9 -222 -13 -427 -7 -385
-4 -423 33 -437 23 -9 43 13 43 48 0 17 -7 81 -15 141 -31 230 -1 849 55 1110
74 352 41 703 -111 1165 -59 181 -114 290 -206 411 -45 58 -138 193 -208 299
-110 167 -146 213 -260 329 l-132 136 -8 70 c-18 174 -84 352 -173 464 -26 33
-59 75 -74 94 -53 67 -157 99 -223 69z m169 -165 c173 -181 196 -244 160 -432
-19 -100 -30 -346 -17 -369 7 -13 16 24 32 136 12 84 25 162 29 173 7 23 12
-7 36 -210 9 -71 23 -184 31 -250 8 -66 18 -217 21 -335 7 -233 -2 -347 -52
-619 -42 -226 -49 -224 -50 21 0 203 -2 222 -37 403 -20 104 -37 209 -37 233
0 26 -4 41 -10 37 -16 -10 -11 -129 11 -275 38 -254 35 -627 -6 -810 -9 -36
-22 -101 -31 -145 -19 -98 -39 -147 -71 -177 l-25 -23 6 35 c10 61 26 165 26
173 0 5 -4 6 -8 3 -5 -3 -14 -31 -21 -62 -7 -31 -17 -52 -21 -48 -4 5 -22 52
-40 104 -44 130 -46 133 -148 231 -49 48 -95 101 -102 118 -7 17 -16 31 -21
31 -16 0 20 -60 91 -156 86 -115 97 -137 110 -220 6 -38 16 -90 22 -116 15
-60 2 -92 -47 -115 -35 -17 -37 -17 -80 6 -39 21 -51 36 -96 125 -53 102 -107
188 -164 261 -30 38 -145 246 -145 262 0 4 39 -31 86 -77 47 -47 82 -76 76
-65 -27 52 -155 196 -219 245 -39 30 -98 77 -132 103 -33 26 -113 80 -178 119
-65 38 -138 87 -163 107 -70 56 -206 191 -194 191 6 0 45 -22 85 -48 105 -68
108 -69 69 -28 -41 43 -147 117 -204 140 -65 27 -216 54 -337 61 -113 7 -324
48 -335 66 -3 5 14 9 38 10 24 0 52 4 62 8 19 7 19 8 0 15 -10 4 -51 10 -90
13 -186 15 -306 -79 -290 -228 3 -32 12 -73 20 -91 l14 -33 1 55 1 55 31 -90
c45 -132 78 -188 204 -337 126 -149 128 -152 335 -295 198 -137 227 -172 167
-198 -30 -14 -31 -15 -9 -21 26 -8 26 -8 6 -39 -22 -33 -50 -31 -110 6 -59 38
-164 127 -164 140 0 5 35 -8 78 -29 42 -22 91 -42 107 -46 28 -6 29 -5 11 9
-11 8 -24 15 -29 15 -23 0 -206 121 -254 167 -30 29 -68 60 -86 69 -82 42
-130 102 -182 229 -40 96 -69 143 -135 215 -65 72 -73 93 -68 182 4 66 11 90
43 154 79 155 188 229 429 289 139 35 230 64 222 72 -2 2 -28 -3 -57 -11 -30
-8 -101 -20 -159 -26 -57 -6 -109 -14 -114 -17 -5 -4 -6 -1 -2 5 8 14 167 64
346 108 74 19 200 54 280 79 80 25 231 68 335 94 225 58 248 67 385 158 111
73 260 158 260 147 0 -17 -101 -133 -198 -226 -82 -78 -130 -115 -186 -144
-42 -22 -76 -43 -76 -47 0 -21 133 43 235 114 162 112 253 216 380 434 66 115
148 229 178 250 12 8 41 15 65 15 37 0 49 -5 76 -33z m-1048 -47 c218 -21 539
-90 618 -132 19 -10 18 -13 -20 -47 -23 -20 -80 -58 -128 -86 -48 -27 -131
-79 -184 -114 -128 -85 -194 -114 -332 -145 -131 -29 -177 -42 -345 -96 -66
-21 -216 -64 -333 -95 -117 -31 -251 -69 -296 -86 -170 -61 -343 -197 -398
-310 -59 -122 -73 -171 -73 -254 1 -101 19 -142 110 -250 37 -44 78 -103 91
-131 22 -46 23 -56 14 -110 -6 -32 -15 -76 -22 -97 -17 -55 -4 -54 31 2 17 28
35 51 40 51 5 0 14 -13 21 -29 6 -16 22 -39 36 -52 13 -12 24 -25 24 -29 0
-11 -89 -122 -132 -165 -39 -40 -116 -180 -105 -191 3 -3 18 18 33 47 39 78
72 115 144 163 36 24 78 56 94 70 15 15 30 25 33 23 8 -8 -56 -137 -87 -178
-56 -69 -27 -62 55 16 82 76 123 102 150 91 32 -12 30 -38 -5 -68 -43 -35 -34
-46 17 -20 l38 20 70 -62 c101 -90 162 -134 196 -141 37 -8 37 -25 1 -130
l-27 -80 -55 -8 c-122 -16 -176 -44 -288 -149 -57 -54 -107 -98 -112 -98 -4 0
-13 7 -20 15 -16 20 4 179 31 243 20 46 88 120 159 171 55 40 27 42 -50 4 -73
-36 -127 -93 -172 -178 -50 -97 -67 -159 -83 -314 -8 -73 -16 -135 -18 -138
-5 -4 -27 185 -27 233 0 19 9 57 21 83 14 33 19 64 17 97 l-3 49 -53 -97 c-29
-54 -55 -98 -59 -98 -10 0 9 114 28 163 11 27 18 52 15 54 -10 10 -35 -46 -66
-142 -39 -123 -40 -126 -79 -149 -40 -23 -74 -15 -119 30 -34 34 -34 35 -27
96 4 35 15 93 25 131 10 37 14 67 9 67 -14 0 -27 -33 -54 -136 -14 -54 -27
-100 -30 -102 -2 -3 -10 0 -17 6 -7 5 -24 12 -38 14 -24 3 -25 5 -30 108 -5
103 -5 104 -18 65 -7 -22 -16 -73 -19 -112 -4 -50 -10 -73 -19 -73 -7 0 -24
-14 -37 -32 l-25 -32 -6 35 c-3 19 -7 48 -9 64 -2 17 -5 -8 -6 -55 -1 -82 -2
-87 -42 -143 -22 -31 -45 -57 -50 -57 -5 0 -9 15 -9 33 0 17 -11 55 -24 83
-27 58 -94 154 -107 154 -12 0 -14 5 26 -85 19 -44 35 -95 35 -112 l0 -33 -78
50 c-89 57 -125 91 -120 115 3 14 8 13 41 -9 42 -29 47 -31 47 -16 0 6 -20 25
-45 42 -46 32 -56 48 -31 48 7 0 46 16 85 36 69 34 73 35 97 19 13 -9 37 -40
51 -70 15 -30 30 -55 34 -55 8 0 -15 93 -36 143 -29 71 -14 105 57 122 23 6
27 4 30 -19 4 -36 22 -37 28 -2 4 25 12 30 58 42 29 8 62 18 72 24 26 14 30
13 30 -10 0 -30 19 -24 26 8 4 15 27 49 53 75 44 46 132 117 145 117 3 0 -1
-18 -10 -40 -25 -63 -9 -59 34 9 98 151 125 320 69 433 -17 35 -46 72 -73 94
-52 43 -120 133 -201 266 -59 98 -151 201 -305 343 -72 67 -132 145 -110 145
15 0 121 -99 155 -145 l29 -40 -6 40 c-11 58 -78 191 -132 260 -75 94 -66 41
15 -85 14 -20 14 -23 1 -15 -20 12 -92 67 -145 111 -44 36 -71 44 -61 19 3 -9
24 -42 46 -75 22 -32 40 -64 40 -70 0 -6 -17 -2 -39 9 -21 11 -83 38 -137 60
-55 22 -120 49 -146 60 l-47 21 15 37 c23 54 129 181 141 169 5 -5 -42 -92
-65 -118 -8 -9 -12 -23 -9 -30 8 -23 129 112 176 197 85 155 171 247 323 345
135 87 221 120 343 131 55 5 148 14 207 19 114 11 275 48 328 75 44 23 33 27
-25 10 -55 -17 -100 -20 -75 -6 33 20 209 64 280 71 119 11 795 11 916 0z
m-3416 -586 c92 -60 116 -71 90 -39 -20 25 -4 29 42 12 24 -8 81 -25 128 -37
54 -14 114 -38 165 -68 147 -85 204 -134 314 -274 53 -66 86 -96 191 -174 62
-45 142 -94 156 -94 5 0 -33 30 -84 68 -76 55 -102 81 -148 150 -30 46 -54 86
-51 88 5 6 89 -32 282 -126 l150 -74 163 -160 c132 -130 176 -181 229 -264 36
-56 63 -105 59 -109 -3 -3 -33 11 -66 31 -48 30 -79 40 -148 51 -54 8 -112 25
-155 45 -66 32 -158 43 -178 23 -4 -4 15 -8 44 -8 42 0 63 -7 112 -37 37 -23
79 -39 110 -44 64 -9 106 -30 179 -92 47 -40 72 -54 126 -67 46 -11 84 -29
120 -56 29 -22 59 -43 67 -47 19 -11 42 -78 43 -124 1 -108 -40 -189 -130
-259 -30 -24 -81 -67 -112 -96 -57 -54 -146 -103 -183 -102 -16 0 -12 7 24 39
56 51 34 52 -67 4 -58 -28 -98 -58 -172 -130 -53 -51 -113 -100 -133 -109
l-37 -15 -15 36 c-8 19 -24 49 -36 65 -18 26 -19 34 -9 59 21 50 74 96 126
110 27 7 98 28 158 48 101 33 111 34 160 23 57 -13 84 -7 134 28 15 10 59 39
97 64 129 83 154 133 124 254 -24 93 -111 143 -293 168 -68 9 -126 24 -176 46
-112 49 -209 51 -369 10 -66 -17 -144 -31 -173 -31 l-53 0 75 41 c41 23 91 46
110 52 l35 11 -34 4 c-25 3 -57 -8 -119 -39 l-86 -43 -160 -2 c-179 -2 -209
-9 -336 -75 -47 -24 -97 -61 -132 -96 -57 -59 -190 -225 -184 -231 2 -1 55 48
117 110 63 62 130 122 149 132 35 20 35 20 -13 -33 -26 -29 -77 -110 -114
-178 -60 -112 -76 -133 -147 -197 -44 -39 -107 -97 -139 -129 l-59 -59 -29 28
c-16 16 -35 45 -41 66 -13 44 -28 50 -28 11 0 -36 45 -132 65 -139 8 -3 15
-12 15 -19 0 -53 -77 12 -121 101 -23 47 -33 83 -37 134 -2 38 -9 70 -13 70
-5 0 -9 -35 -9 -77 0 -56 7 -96 24 -143 13 -36 27 -74 31 -85 12 -34 -32 23
-62 80 -32 62 -41 170 -23 283 15 99 81 280 164 454 36 76 75 160 86 188 24
60 41 130 31 130 -3 0 -23 -35 -43 -78 -46 -96 -98 -185 -104 -179 -11 10 29
259 53 337 23 70 27 104 28 190 0 58 -5 139 -11 180 -8 55 -8 119 1 240 12
179 24 218 72 244 36 19 66 8 183 -70z m4989 -259 c37 -49 100 -142 141 -205
40 -63 116 -171 167 -240 52 -69 107 -152 122 -185 59 -123 176 -512 200 -665
23 -145 30 -295 21 -435 -13 -194 -25 -222 -34 -80 -21 329 -142 855 -196 855
-13 0 -13 -4 5 -47 16 -39 91 -463 106 -603 5 -47 9 -168 9 -270 1 -205 -11
-290 -59 -431 -44 -128 -230 -533 -231 -501 -1 43 61 271 111 407 62 170 90
277 47 180 -13 -27 -48 -99 -79 -160 -67 -131 -126 -306 -140 -419 -6 -44 -8
-124 -5 -176 7 -106 39 -310 55 -353 16 -40 14 -94 -5 -133 -17 -36 -42 -49
-74 -39 -37 12 -50 56 -50 165 0 123 -15 167 -60 176 -16 4 -30 7 -30 8 0 0 7
23 15 50 8 27 14 70 14 95 l-1 46 -8 -46 c-4 -25 -17 -63 -28 -85 -28 -55 -37
-190 -21 -317 10 -86 9 -128 -5 -272 -23 -236 -23 -632 0 -785 21 -142 24
-320 6 -378 -13 -42 -43 -82 -61 -82 -5 0 -15 15 -22 33 -20 45 -16 373 6 647
18 216 17 324 -4 547 -12 124 -30 162 -111 241 -65 62 -70 78 -45 139 8 19 15
45 15 57 -1 15 -5 11 -14 -14 -7 -19 -21 -52 -30 -72 -16 -38 -10 -78 14 -93
19 -12 89 -112 95 -137 6 -22 4 -24 -28 -20 -88 10 -136 -59 -137 -196 0 -97
-7 -113 -60 -147 -77 -49 -110 -158 -110 -370 0 -77 6 -194 14 -260 8 -66 17
-151 21 -190 3 -38 13 -110 21 -160 18 -116 18 -197 -1 -241 -23 -55 -44 -42
-95 61 l-45 90 -3 173 c-2 96 1 251 7 345 14 243 -11 414 -74 519 -19 31 -35
65 -35 77 0 12 -4 21 -10 21 -17 0 -11 -49 15 -110 33 -79 32 -90 -8 -53 -83
79 -207 64 -258 -32 -31 -59 -49 -55 -64 15 -6 30 -16 65 -23 77 -16 29 -61
63 -83 63 -26 0 -24 22 5 50 33 30 51 21 79 -37 27 -59 56 -65 71 -15 10 37
26 40 64 13 15 -11 47 -21 72 -23 l45 -3 5 59 c4 37 11 62 20 68 75 45 184
108 187 108 10 0 1 -69 -13 -88 -8 -12 -11 -22 -5 -22 16 0 54 70 62 117 5 25
22 61 37 81 50 64 67 148 38 187 -11 16 -31 21 -98 26 -72 5 -89 10 -130 38
-26 17 -61 36 -77 42 -35 12 -41 41 -17 75 13 16 27 19 113 20 54 0 106 4 116
8 9 5 17 4 17 -1 0 -20 -35 -56 -74 -74 l-41 -19 40 4 c56 7 131 89 191 209
46 92 70 127 86 127 17 0 7 -101 -17 -177 -13 -42 -23 -79 -21 -81 2 -1 18 14
35 35 38 46 85 173 117 318 33 146 37 158 52 163 18 6 16 -173 -4 -259 -9 -39
-14 -73 -11 -75 7 -7 45 136 72 270 14 65 27 121 30 124 7 8 32 -57 40 -105 4
-24 11 -45 16 -49 11 -6 11 4 0 71 -9 55 7 200 34 292 16 54 100 223 111 223
8 0 -5 -38 -47 -131 -22 -48 -39 -90 -39 -93 0 -18 22 11 64 84 26 44 49 80
51 80 7 0 -2 -35 -47 -179 -21 -68 -36 -126 -34 -129 9 -8 172 250 224 354 53
106 97 222 87 232 -7 7 -6 7 -33 -58 -25 -61 -123 -230 -134 -230 -16 0 52
189 79 221 7 8 13 21 13 28 0 25 -40 -10 -87 -76 -26 -36 -48 -62 -50 -57 -2
6 8 42 21 82 28 80 19 86 -18 14 -28 -56 -62 -99 -70 -91 -9 9 92 287 158 434
l35 80 2 -45 c4 -103 -1 -197 -12 -223 -22 -53 0 -39 29 19 53 105 84 220 89
330 6 110 -6 161 -26 114 -5 -14 -13 -52 -17 -85 l-7 -60 -12 60 c-7 33 -18
73 -24 88 -6 16 -11 46 -11 68 0 21 -4 39 -9 39 -11 0 -16 -22 -31 -135 -13
-96 -33 -161 -60 -195 l-20 -25 17 40 c13 31 18 79 21 219 3 114 0 182 -6 188
-12 12 -18 -18 -27 -139 -5 -83 -41 -221 -53 -208 -4 4 -7 34 -8 68 -1 129 -4
178 -12 173 -5 -3 -14 -31 -22 -63 -14 -67 -48 -143 -62 -143 -5 0 -7 12 -4
28 13 66 18 272 7 272 -6 0 -11 -2 -11 -3 0 -26 -53 -234 -65 -254 -16 -28
-16 -27 -10 22 4 28 11 97 15 155 5 58 12 124 16 148 8 48 -7 57 -25 14 -6
-15 -25 -91 -40 -167 -16 -77 -38 -160 -49 -185 l-19 -45 3 150 c2 133 6 162
33 255 17 58 31 112 30 120 -1 32 -92 -240 -110 -330 -30 -151 -61 -256 -69
-234 -4 11 -11 78 -14 150 -7 126 -7 134 23 235 16 57 39 151 49 209 10 58 27
121 37 140 34 67 147 241 153 236 7 -8 -25 -116 -54 -182 -14 -31 -23 -58 -21
-61 6 -6 95 129 132 199 16 31 31 55 33 53 2 -2 -3 -48 -12 -103 -17 -106 -21
-192 -8 -192 4 0 15 35 25 78 10 42 26 95 36 117 l18 40 11 -77 c13 -83 29
-128 46 -128 6 0 16 -10 21 -22 13 -28 42 -39 30 -12 -4 11 -9 55 -12 99 l-4
80 30 -54 c35 -62 50 -81 62 -81 5 0 -3 24 -17 53 -33 64 -54 139 -54 195 0
52 -12 54 -32 5 -9 -21 -21 -49 -27 -63 -11 -23 -11 -22 -6 10 3 19 9 63 12
98 8 81 -10 83 -52 7 l-31 -56 4 103 c2 74 0 99 -7 88 -6 -8 -11 -23 -11 -32
0 -22 -50 -132 -56 -125 -3 3 -1 39 5 80 10 71 9 86 -16 220 -10 50 -21 28
-21 -41 1 -39 -7 -91 -16 -120 -17 -51 -71 -140 -120 -197 l-25 -30 -1 36 c0
19 12 73 26 120 29 94 47 309 25 309 -7 0 -11 -19 -11 -48 0 -27 -8 -73 -17
-103 l-17 -54 -8 150 c-4 83 -15 202 -23 265 -9 63 -19 144 -22 180 l-5 65 67
-65 c36 -36 97 -105 134 -155z m-2726 -436 c44 -23 66 -53 97 -130 25 -62 47
-95 104 -156 39 -43 92 -105 118 -138 81 -104 136 -151 233 -195 212 -98 235
-110 235 -123 0 -8 -9 -22 -21 -33 -32 -29 -114 -24 -176 10 -26 15 -75 37
-108 48 -87 29 -208 94 -257 139 -50 45 -42 48 36 14 31 -14 56 -21 56 -17 0
4 -41 32 -91 62 -124 75 -217 172 -252 266 -51 133 -59 212 -27 244 23 23 24
24 53 9z m394 -40 c31 -15 54 -38 87 -88 25 -37 77 -94 118 -129 86 -73 143
-142 227 -273 62 -97 68 -113 52 -138 -7 -12 -18 -9 -58 14 -83 50 -116 62
-191 75 -146 24 -272 112 -370 260 -32 47 -40 70 -46 125 -8 75 0 129 20 146
15 12 64 26 98 28 11 1 39 -8 63 -20z m321 -75 c70 -39 217 -172 257 -234 31
-48 76 -176 78 -221 2 -67 -48 -93 -79 -41 -50 80 -73 106 -143 161 -44 34
-103 93 -137 136 -32 42 -80 104 -106 137 -27 33 -48 64 -48 69 0 15 34 28 73
29 26 0 61 -12 105 -36z m477 -358 c54 -25 111 -82 121 -120 17 -69 -33 -116
-122 -116 l-54 0 0 40 c0 22 -12 68 -26 104 -46 111 -20 140 81 92z m-2245
-106 c36 -36 13 -110 -53 -169 -52 -47 -115 -108 -87 -85 14 12 50 38 81 57
71 45 102 82 126 149 l18 53 3 -49 c4 -60 -18 -123 -56 -158 -61 -58 -247
-191 -284 -204 -22 -7 -53 -25 -70 -39 -48 -41 -94 -31 -132 27 -24 37 -15 68
38 139 24 31 60 85 80 120 33 54 128 149 151 149 3 0 -5 -15 -18 -32 -38 -52
-69 -108 -60 -108 4 0 18 15 30 33 81 117 182 168 233 117z m-495 -21 c42 -37
43 -54 10 -99 -14 -18 -23 -36 -20 -38 3 -3 6 -3 8 -1 1 2 17 23 35 46 17 23
32 48 32 57 0 35 11 45 36 34 29 -14 29 -19 4 -60 -12 -20 -20 -51 -20 -79 0
-49 -25 -94 -97 -177 -35 -41 -40 -43 -74 -37 l-37 7 -7 66 c-9 82 -15 99 -59
157 -20 26 -36 55 -36 65 0 27 38 59 90 75 70 21 95 18 135 -16z m886 -30 c49
-12 63 -42 57 -123 -7 -79 -26 -113 -79 -135 -46 -19 -52 -33 -9 -21 36 10 92
44 110 65 19 22 32 18 25 -7 -14 -47 -57 -100 -93 -115 -31 -13 -46 -14 -93
-4 -55 11 -60 10 -164 -30 -59 -23 -119 -51 -133 -63 -110 -88 -203 -127 -255
-107 -28 11 -67 64 -67 91 1 31 37 61 115 94 247 106 249 106 298 159 26 28
56 69 66 91 10 23 26 58 35 78 9 20 22 39 29 42 15 6 109 -3 158 -15z m-1134
-161 c49 -51 73 -101 73 -154 0 -17 -5 -20 -24 -17 -13 3 -40 -3 -59 -12 -35
-16 -36 -16 -74 9 -21 14 -43 26 -49 26 -6 0 -32 14 -57 31 -34 22 -47 37 -47
55 0 34 54 90 98 102 71 19 84 15 139 -40z m3284 3 c22 -21 39 -45 39 -53 0
-22 -29 -43 -87 -63 -43 -15 -58 -17 -90 -7 -40 12 -73 53 -73 89 0 39 57 71
129 72 37 1 49 -4 82 -38z m-390 -4 c-5 -13 -30 -56 -56 -96 -107 -165 -193
-391 -260 -679 -9 -40 -27 -96 -39 -125 -13 -29 -35 -88 -51 -132 -15 -44 -44
-116 -65 -160 -21 -44 -45 -101 -55 -127 -11 -33 -34 -63 -72 -98 -70 -64
-135 -97 -215 -110 -35 -5 -73 -12 -85 -16 -15 -4 -24 0 -32 14 -15 28 -7 42
45 80 44 33 158 162 149 170 -2 2 -23 -12 -46 -32 -23 -19 -63 -43 -88 -51
-25 -9 -64 -25 -86 -36 l-40 -20 -26 31 c-15 17 -35 47 -45 65 -18 33 -18 35
1 56 11 12 85 53 164 91 140 67 221 118 221 140 0 6 -8 4 -17 -4 -31 -27 -60
-38 -140 -54 -43 -9 -105 -25 -137 -36 -57 -19 -106 -18 -106 2 0 15 89 49
158 60 71 12 84 17 157 68 124 87 153 122 238 285 56 108 54 131 -3 33 -60
-103 -133 -189 -190 -223 -30 -18 -59 -33 -63 -33 -5 0 11 22 35 49 24 26 64
85 88 130 25 45 60 105 78 133 36 56 64 131 81 217 16 76 35 111 101 186 32
36 80 94 106 130 65 86 77 83 15 -3 -56 -80 -63 -92 -90 -161 -28 -71 -13 -64
26 12 39 74 114 171 145 188 20 10 21 10 11 -2 -6 -8 -33 -66 -58 -129 -26
-63 -56 -131 -66 -151 -10 -21 -33 -95 -50 -165 -34 -137 -54 -187 -100 -245
-32 -40 -38 -59 -13 -39 30 26 93 147 154 300 121 301 157 367 257 468 48 48
78 57 64 19z m-41 -214 c-12 -70 -25 -135 -29 -143 -4 -8 -4 -37 0 -65 4 -27
5 -93 2 -145 -7 -115 8 -237 48 -389 16 -62 29 -134 29 -160 l0 -46 -36 70
c-47 90 -62 144 -78 268 -13 97 -14 99 -15 40 -1 -59 5 -96 60 -368 13 -60 23
-144 23 -185 1 -66 -3 -81 -30 -130 -18 -30 -44 -100 -60 -154 -42 -149 -98
-220 -196 -247 -34 -9 -44 -7 -73 11 -19 12 -35 23 -35 26 0 2 17 12 38 23 53
27 111 88 138 146 24 50 50 153 41 161 -3 3 -20 -23 -39 -58 -40 -73 -115
-139 -215 -188 l-65 -32 -49 19 -50 19 72 59 c126 104 165 148 207 237 51 107
98 239 112 318 6 34 14 69 17 78 4 11 3 14 -4 7 -5 -5 -15 -33 -21 -62 -6 -28
-36 -102 -65 -165 -71 -148 -150 -247 -254 -316 -43 -29 -99 -68 -125 -88 -45
-34 -48 -35 -88 -23 -44 13 -95 54 -85 68 3 5 30 13 61 17 68 8 142 60 191
133 18 27 67 83 108 126 78 79 101 115 134 207 64 179 102 320 126 463 38 230
59 307 114 421 54 112 100 189 108 181 3 -3 -5 -63 -17 -134z m-2962 14 c35
-18 42 -26 36 -42 -11 -34 -16 -105 -8 -105 5 0 17 17 27 38 28 58 60 72 162
72 125 0 165 -22 313 -168 65 -64 127 -135 137 -157 18 -36 20 -63 21 -260 0
-256 13 -335 69 -427 44 -71 53 -112 31 -137 -18 -20 -12 -31 15 -31 24 0 49
49 49 96 0 29 3 35 16 30 9 -3 27 -9 40 -12 13 -3 24 -11 24 -18 0 -30 -42
-181 -60 -216 -23 -45 -32 -52 -55 -44 -26 10 -111 147 -120 191 -4 21 -23 92
-43 158 l-35 120 -1 215 c-1 207 -2 217 -26 265 -28 57 -120 155 -146 155 -14
0 -8 -11 23 -42 94 -98 119 -214 87 -402 -7 -39 8 -132 47 -294 11 -45 24
-121 29 -168 10 -92 32 -148 86 -219 26 -35 30 -45 17 -49 -27 -11 -63 -6 -89
10 -48 32 -70 90 -88 230 -9 72 -24 155 -32 185 -8 30 -21 122 -29 204 -12
135 -42 269 -53 237 -2 -6 4 -34 13 -61 22 -68 22 -112 1 -306 -14 -127 -16
-181 -8 -215 l10 -45 2 70 c1 39 5 81 9 94 6 21 8 19 31 -25 23 -46 25 -59 25
-200 1 -173 1 -175 93 -261 69 -66 54 -69 -22 -5 -72 60 -122 133 -138 200
-15 60 -32 71 -24 15 20 -142 20 -140 -2 -120 -11 10 -32 35 -46 55 -22 33
-26 51 -32 157 -3 66 -1 176 5 245 7 80 7 128 1 134 -7 7 -10 -17 -10 -64 0
-42 -9 -111 -20 -155 -12 -48 -23 -133 -27 -215 l-6 -135 47 -86 c45 -84 54
-109 38 -109 -15 0 -125 163 -137 204 -17 62 -11 366 10 436 9 30 19 112 22
181 10 208 -21 302 -150 464 -65 80 -111 124 -122 113 -3 -3 4 -17 16 -32 12
-15 19 -29 17 -32 -3 -2 -29 7 -59 20 -38 17 -70 42 -108 86 -34 39 -71 70
-99 82 -39 18 -43 22 -38 46 4 15 20 40 37 55 29 27 33 28 107 22 50 -4 92
-14 120 -28z m3176 8 c58 -18 121 -19 181 -4 41 10 49 9 132 -30 62 -28 95
-50 111 -73 26 -38 29 -99 7 -118 -28 -24 -100 -6 -194 49 -94 54 -115 62 -88
34 9 -10 29 -33 43 -50 l26 -33 -28 0 c-15 0 -46 11 -70 25 -23 14 -75 32
-116 40 -121 26 -135 44 -98 129 21 51 24 52 94 31z m-3421 -177 c40 -11 86
-33 103 -48 17 -15 67 -47 110 -70 44 -24 89 -52 102 -63 26 -24 31 -63 6 -53
-9 4 -71 3 -138 0 -129 -8 -129 -12 -1 -39 73 -15 212 -66 243 -88 44 -33 -19
-67 -123 -67 -48 0 -73 7 -139 40 -68 33 -97 42 -181 50 -113 12 -172 40 -212
99 -43 64 -21 112 34 73 29 -21 122 -54 183 -66 31 -7 30 -5 -15 17 -66 32
-145 116 -145 155 0 31 14 54 45 70 29 16 48 15 128 -10z m3370 -25 c41 -27
89 -56 106 -65 37 -21 40 -46 7 -77 -24 -23 -25 -23 -87 -7 -34 8 -62 17 -63
18 -1 2 -19 22 -39 46 -29 33 -36 48 -31 65 13 42 24 67 28 67 3 0 39 -21 79
-47z m1566 -109 c35 -44 28 -122 -29 -346 -50 -198 -99 -320 -163 -406 -38
-51 -141 -118 -216 -141 -66 -20 -111 -45 -100 -55 3 -3 23 3 44 14 22 11 56
20 77 20 21 0 55 7 75 15 20 8 38 13 41 10 9 -9 -117 -161 -248 -298 -49 -52
-113 -97 -138 -97 -5 0 -5 24 0 55 4 30 12 80 16 110 12 78 -3 68 -23 -17 -16
-63 -24 -78 -76 -130 -46 -47 -62 -58 -79 -53 l-20 6 20 29 c40 56 44 167 11
310 -31 136 4 220 93 220 23 0 48 5 56 11 11 7 -5 9 -55 6 -38 -1 -77 -5 -85
-7 -12 -4 -15 9 -17 70 -4 90 -15 135 -55 215 -39 77 -179 222 -273 283 -95
62 -186 133 -180 142 10 17 89 19 158 6 48 -10 114 -36 202 -81 128 -65 132
-66 245 -76 209 -20 381 15 468 94 32 29 28 17 -20 -64 -50 -84 -130 -161
-190 -183 -37 -14 -38 -15 -11 -12 39 6 126 58 176 105 21 20 59 65 84 101 65
92 143 170 169 170 13 0 32 -12 43 -26z m-1348 -121 c11 -9 18 -37 21 -87 4
-55 12 -85 32 -121 19 -34 23 -51 15 -56 -6 -4 -8 -12 -5 -18 18 -28 -24 -6
-63 33 -33 33 -48 60 -61 108 -10 34 -19 55 -19 46 -1 -30 -18 -20 -25 13 -10
49 -8 58 19 85 27 27 54 26 86 -3z m-1120 -59 c-37 -33 -61 -68 -90 -128 -21
-45 -47 -88 -56 -96 -15 -12 -14 -7 4 29 12 23 20 45 17 48 -11 11 -80 -52
-110 -100 -34 -55 -46 -45 -26 21 22 68 49 100 105 126 33 16 68 44 91 72 37
44 76 73 103 74 7 0 -10 -21 -38 -46z m-885 -62 c15 -9 67 -121 104 -224 29
-79 70 -156 70 -132 0 7 -10 43 -21 80 -29 94 -40 174 -23 174 19 0 54 -49 54
-76 0 -12 5 -26 10 -29 6 -4 10 10 10 34 0 48 16 53 68 21 23 -14 32 -27 32
-45 0 -14 18 -81 40 -149 22 -67 40 -139 40 -159 0 -21 5 -37 10 -37 14 0 13
21 -6 128 -8 51 -14 98 -12 104 10 30 39 -46 58 -156 25 -136 49 -209 92 -272
44 -66 69 -73 29 -8 -23 38 -37 79 -23 70 5 -3 49 -68 97 -143 49 -76 102
-155 119 -175 17 -20 48 -59 69 -87 26 -34 71 -73 135 -115 71 -47 102 -73
114 -99 23 -48 60 -72 87 -58 31 17 66 13 132 -14 40 -16 57 -19 49 -10 -19
22 -110 64 -158 71 -33 5 -49 15 -72 45 -17 20 -61 58 -99 83 -70 46 -111 88
-111 112 0 19 17 18 81 -5 129 -46 157 -61 267 -144 65 -49 140 -102 169 -118
58 -34 186 -79 217 -78 12 0 -2 8 -29 18 -68 24 -124 54 -160 86 l-30 26 35
-5 c95 -15 311 -28 385 -24 71 4 95 10 157 41 41 20 83 46 94 58 l19 22 -32
-16 c-65 -34 -283 -79 -283 -58 0 4 36 29 81 55 125 75 259 186 223 186 -3 0
-32 -16 -65 -35 -32 -19 -59 -32 -59 -29 0 17 129 149 157 160 44 19 50 18 69
-11 14 -21 14 -30 4 -55 -12 -28 -84 -102 -145 -148 l-30 -23 36 14 c20 8 62
32 95 54 32 22 73 48 91 58 31 18 31 18 62 -8 71 -60 79 -75 78 -162 -2 -123
30 -179 123 -215 19 -7 53 -27 75 -44 33 -26 48 -31 95 -31 30 0 70 3 88 7 25
6 32 4 32 -8 0 -51 -107 -166 -195 -212 -22 -11 -73 -41 -114 -66 -95 -58
-121 -63 -202 -36 -78 26 -84 32 -67 59 9 15 23 21 50 21 58 0 82 30 74 89 -6
45 -6 45 11 22 20 -29 22 -103 3 -126 -7 -8 -10 -18 -8 -21 3 -3 16 8 28 23
19 25 22 37 17 97 -4 63 -3 68 10 50 11 -14 13 -36 10 -82 -6 -75 8 -70 23 8
13 71 20 75 20 12 0 -60 13 -67 31 -17 12 31 22 37 25 14 1 -5 2 -12 3 -15 0
-4 8 -1 16 6 8 7 15 28 15 46 0 39 14 45 24 12 6 -22 7 -22 20 -5 7 9 17 17
22 17 5 0 17 9 26 19 37 43 -36 57 -84 16 -44 -37 -82 -33 -110 10 -28 43 -56
52 -97 31 -40 -21 -53 -48 -45 -91 8 -46 -9 -68 -48 -60 -24 6 -34 1 -62 -29
-37 -39 -43 -63 -71 -288 -16 -135 -32 -199 -52 -205 -22 -8 -25 45 -9 140 18
107 21 323 5 380 -6 22 -21 44 -37 54 -15 10 -40 27 -55 40 -17 14 -42 23 -62
23 -48 0 -85 19 -85 44 -1 55 -21 56 -129 11 -50 -21 -76 -26 -122 -23 -39 2
-55 0 -48 -7 5 -5 45 -10 87 -10 67 0 82 4 119 28 24 15 49 27 58 27 33 0 11
-20 -62 -57 -88 -43 -80 -52 20 -25 75 22 89 11 25 -19 l-43 -20 80 6 c57 5
76 3 65 -4 -8 -6 -25 -11 -37 -11 -13 0 -23 -5 -23 -10 0 -7 26 -10 66 -8 66
2 67 2 103 -37 l36 -40 -80 -3 c-95 -4 -137 6 -260 59 -74 31 -113 41 -187 48
-70 7 -120 19 -201 50 -60 23 -130 44 -155 48 -26 3 -66 14 -90 25 -24 10 -66
18 -93 18 -49 0 -52 -2 -114 -67 -35 -37 -62 -69 -59 -72 2 -2 23 10 47 27 23
17 57 39 75 49 30 15 34 16 48 1 21 -20 12 -33 -36 -58 -98 -50 -160 -141
-160 -234 0 -29 13 -86 31 -139 19 -55 29 -103 27 -123 -2 -19 0 -34 4 -34 13
0 9 89 -7 165 -8 39 -15 79 -14 90 0 17 3 16 24 -9 13 -16 38 -57 55 -90 49
-92 31 -19 -21 88 -48 100 -47 129 4 151 44 18 60 6 74 -57 6 -29 23 -82 38
-117 38 -90 43 -163 16 -235 -28 -77 -27 -117 4 -146 22 -21 27 -22 40 -9 7 8
17 28 20 44 l7 30 -21 -25 c-15 -19 -23 -22 -32 -13 -14 14 -8 65 17 155 18
65 18 70 0 157 -20 98 -17 141 15 227 21 55 40 77 76 88 22 7 21 5 -10 -61
-33 -71 -32 -61 -24 -233 0 -19 -3 -52 -7 -72 -5 -25 -5 -38 2 -38 6 0 13 30
17 68 12 129 23 164 75 234 34 46 64 74 92 88 48 23 65 19 19 -4 -38 -20 -72
-79 -105 -180 -27 -83 -33 -126 -16 -126 6 0 10 9 10 20 0 39 41 127 72 157
18 17 48 38 67 48 33 16 34 16 26 -1 -4 -11 -21 -61 -36 -113 -30 -96 -37
-147 -19 -136 6 3 10 15 10 26 0 25 36 97 64 127 18 20 116 78 116 69 0 -1 -9
-19 -19 -40 -15 -30 -19 -58 -19 -145 1 -59 -2 -127 -6 -152 -5 -33 -4 -41 4
-28 17 28 49 140 59 210 11 82 27 113 86 167 53 49 75 47 28 -2 -17 -17 -35
-41 -41 -53 -11 -21 -42 -195 -42 -234 0 -35 18 -21 25 19 3 22 13 47 20 58
13 16 15 1 16 -117 l1 -135 14 70 c18 91 69 217 94 233 26 16 26 8 -1 -80 -26
-89 -19 -109 14 -37 14 31 33 59 42 63 13 5 16 2 10 -11 -27 -66 -46 -135 -59
-208 -12 -71 -20 -92 -48 -125 -18 -21 -36 -39 -40 -39 -3 -1 -14 35 -24 79
-9 44 -21 77 -25 74 -5 -3 -9 -13 -10 -22 0 -10 -21 -27 -52 -43 -40 -20 -57
-36 -75 -70 -26 -51 -37 -54 -65 -17 -18 24 -18 31 -7 78 15 61 7 78 -10 23
-7 -21 -25 -63 -40 -93 -15 -30 -35 -82 -45 -115 l-18 -60 -9 35 c-6 19 -14
43 -19 53 -5 10 -7 48 -4 85 l5 67 -16 -43 c-9 -24 -40 -82 -70 -129 -30 -48
-59 -104 -66 -125 -6 -21 -14 -38 -18 -38 -17 0 -33 120 -22 172 7 40 7 49 -2
34 -28 -46 -50 -68 -84 -82 -51 -21 -70 -40 -105 -109 l-31 -60 -14 80 c-19
108 -30 135 -61 147 -25 9 -25 10 -7 24 11 8 31 14 45 14 25 1 25 1 7 15 -36
27 -67 18 -118 -35 -26 -27 -62 -74 -79 -105 -17 -30 -35 -53 -39 -50 -14 9
-40 97 -46 155 -8 87 -13 99 -41 114 l-27 14 32 16 c17 9 38 16 47 16 8 0 15
5 15 10 0 17 -62 11 -107 -11 -50 -24 -85 -66 -139 -166 -38 -71 -54 -88 -54
-58 0 19 -86 193 -107 217 -13 15 -14 20 -2 34 10 12 23 14 54 10 l40 -6 -24
20 c-40 34 -69 26 -129 -37 -29 -32 -68 -86 -86 -121 l-32 -63 -24 51 c-13 28
-30 56 -38 63 -8 6 -33 36 -55 65 -45 61 -87 84 -141 75 l-36 -6 7 34 c15 66
9 118 -15 135 -18 13 -22 25 -22 72 -1 63 -13 55 -24 -16 -5 -35 -3 -48 14
-70 18 -22 20 -35 15 -81 -3 -31 -8 -65 -10 -77 -3 -11 2 -29 9 -40 14 -19 15
-18 38 4 30 28 48 28 84 0 l28 -23 -29 -5 c-27 -5 -30 -10 -37 -55 -4 -27 -10
-61 -13 -74 l-6 -24 -32 30 c-57 53 -89 73 -118 73 -37 0 -59 -33 -59 -87 0
-46 -5 -50 -34 -28 -27 21 -79 19 -99 -3 -17 -19 -25 -39 -52 -134 -8 -32 -19
-58 -24 -58 -5 0 -16 15 -24 33 -16 35 -12 85 18 211 28 120 19 212 -29 271
-28 34 -45 29 -23 -7 9 -12 19 -49 22 -81 l8 -59 -31 16 c-39 20 -44 20 -94
-4 -23 -11 -44 -18 -47 -15 -13 14 0 78 35 160 30 73 37 103 38 160 1 89 -15
123 -74 153 -31 16 -44 28 -42 40 7 32 21 36 57 19 43 -20 46 -21 43 -5 -6 30
29 9 50 -30 13 -24 26 -42 27 -40 2 2 -1 25 -7 51 -7 36 -18 54 -44 74 -34 26
-34 26 -13 41 19 13 24 12 62 -15 39 -27 42 -33 54 -98 6 -39 10 -88 7 -110
l-4 -40 14 35 c9 21 15 72 15 125 1 100 -8 124 -61 151 -20 10 -27 19 -20 26
16 16 88 -27 96 -57 4 -15 22 -49 42 -77 46 -68 50 -87 25 -143 -27 -62 -28
-89 -1 -55 33 44 40 97 24 180 -7 41 -14 86 -14 99 0 23 1 23 19 7 10 -9 31
-40 46 -68 32 -59 36 -120 12 -208 -17 -60 -14 -80 4 -34 57 144 51 245 -18
325 -17 19 -38 49 -47 66 -21 42 -63 63 -124 63 -40 0 -53 -5 -74 -27 -14 -16
-33 -45 -41 -65 -9 -20 -26 -42 -38 -49 -20 -10 -25 -9 -45 16 -30 38 -92 39
-161 4 -90 -47 -124 -151 -122 -386 0 -65 -5 -143 -12 -173 -8 -37 -13 -153
-13 -350 -1 -271 -3 -297 -20 -322 -23 -35 -36 -35 -75 -2 -22 18 -37 45 -52
96 -25 81 -22 125 17 308 48 221 64 341 64 470 0 141 -16 232 -55 315 -23 47
-25 61 -16 81 20 45 8 59 -23 28 -22 -21 -20 -63 5 -145 12 -39 19 -72 17 -74
-2 -3 -41 10 -85 29 -69 28 -91 44 -145 101 -59 63 -87 105 -70 105 4 1 43 2
87 3 75 2 83 4 130 39 32 23 60 54 74 83 35 70 22 85 -22 26 -20 -28 -41 -51
-45 -51 -10 0 -62 120 -62 143 0 10 14 71 30 135 28 107 30 122 20 180 -11 63
-28 112 -39 112 -3 0 -5 -36 -3 -80 3 -45 0 -80 -5 -80 -17 0 -115 151 -129
198 -8 25 -14 74 -14 108 0 35 -7 112 -16 171 -19 129 -14 200 22 308 40 120
36 116 102 113 54 -3 56 -4 65 -37 6 -24 4 -48 -7 -82 -24 -72 -19 -80 14 -20
38 69 49 81 71 81 17 0 17 -2 3 -35 -7 -19 -14 -48 -14 -65 0 -17 -10 -59 -22
-93 -17 -50 -22 -86 -22 -187 -1 -118 1 -129 28 -188 16 -35 42 -72 58 -84 33
-23 110 -176 127 -249 15 -69 20 -119 12 -119 -11 0 -52 39 -73 70 l-18 25 6
-30 c8 -43 54 -106 93 -129 33 -19 33 -19 100 2 74 24 169 29 220 11 42 -15
39 -26 -11 -39 -77 -20 -83 -22 -105 -36 -38 -24 -26 -33 16 -12 21 10 76 23
122 28 192 20 304 98 435 301 42 66 78 119 81 119 10 0 -9 -97 -37 -185 l-29
-90 25 30 c13 17 32 50 41 75 27 73 33 69 33 -23 0 -81 -4 -97 -47 -205 -73
-181 -68 -225 36 -365 46 -62 52 -51 10 15 -33 52 -34 55 -33 158 1 87 6 123
32 211 41 137 52 193 62 309 4 52 13 115 19 140 16 60 93 221 115 239 30 25
107 26 165 0 45 -19 59 -32 98 -93 111 -173 134 -206 139 -206 3 0 -7 21 -22
48 -39 65 -61 112 -69 146 -5 26 -1 23 47 -29 29 -32 66 -76 82 -97 15 -21 31
-37 33 -34 5 5 -64 174 -80 194 -19 25 1 22 32 -4 18 -15 50 -63 72 -106 22
-44 42 -78 45 -75 2 2 -9 41 -26 87 -17 46 -29 85 -26 87 2 2 12 -16 21 -41
10 -25 21 -46 25 -46 12 0 -24 130 -54 195 -26 58 -46 73 -26 20 10 -25 9 -27
-5 -15 -9 8 -29 37 -43 64 l-27 51 -3 -32 c-2 -18 6 -53 17 -78 22 -50 18 -50
-51 8 -26 21 -53 56 -62 77 -15 38 -36 61 -36 40 0 -6 14 -40 30 -77 17 -36
28 -69 25 -71 -3 -3 -38 11 -78 31 -60 31 -82 37 -134 37 l-62 0 10 32 c14 51
11 249 -5 294 -16 46 -8 73 30 103 26 21 78 28 100 13z m-162 -168 c19 -50
-25 -287 -61 -327 -11 -12 -30 -40 -42 -62 l-22 -40 6 40 c2 22 7 78 10 125 6
88 19 171 36 227 15 47 60 70 73 37z m-1810 -38 c75 -19 148 -41 163 -48 27
-13 28 -17 25 -73 -2 -56 -5 -62 -43 -95 l-41 -35 46 3 46 4 0 -34 c0 -31 -5
-37 -40 -53 -22 -10 -57 -38 -78 -63 -87 -105 -121 -137 -189 -183 -73 -49
-108 -89 -80 -89 8 0 20 7 27 15 6 8 40 30 75 50 l64 35 40 -42 c22 -24 38
-44 36 -46 -2 -2 -18 -5 -37 -8 -18 -2 -52 -9 -75 -15 -23 -6 -54 -8 -68 -5
-14 4 -43 1 -65 -5 -31 -9 -43 -9 -55 1 -20 16 -19 44 2 61 28 23 113 160 113
183 0 15 -10 7 -36 -32 -20 -30 -38 -52 -40 -49 -3 2 1 36 7 74 8 51 9 99 1
177 -7 68 -7 130 -1 172 12 84 30 120 66 133 1 1 63 -14 137 -33z m774 -221
c-3 -156 -16 -191 -25 -71 -3 36 -9 66 -14 66 -18 0 -31 -76 -27 -153 4 -69 3
-77 -9 -61 -42 57 -38 124 18 274 15 41 30 88 34 105 6 26 8 27 16 12 6 -10 9
-82 7 -172z m3506 177 c3 -5 -28 -18 -68 -30 -72 -21 -150 -67 -220 -129 -55
-50 -43 -49 28 1 34 25 83 55 107 66 46 21 125 28 114 10 -4 -6 5 -9 22 -8 46
3 97 -2 90 -8 -3 -4 -34 -16 -69 -28 -37 -13 -124 -62 -213 -121 -116 -76
-163 -114 -208 -167 -59 -69 -134 -185 -125 -193 3 -3 23 21 46 52 64 92 230
243 266 243 6 0 -20 -30 -56 -67 -76 -77 -148 -202 -148 -257 0 -56 -37 -163
-59 -169 -17 -4 -18 -1 -11 24 12 41 -3 36 -23 -8 -9 -21 -28 -51 -42 -68 -18
-21 -23 -23 -16 -8 18 36 13 36 -36 -5 -54 -44 -115 -82 -131 -82 -6 0 10 20
36 44 26 25 60 69 75 98 l29 53 -51 -57 c-39 -43 -66 -62 -108 -78 -30 -11
-57 -19 -59 -18 -1 2 37 46 85 98 72 78 99 117 149 215 33 66 59 121 58 123
-3 2 -102 -129 -138 -182 -28 -42 0 80 37 161 26 57 96 138 160 186 37 28 38
29 12 23 -26 -6 -64 -28 -124 -72 -23 -16 -23 -16 -23 32 0 27 7 79 17 115
l17 67 40 -15 c66 -23 166 -3 229 47 15 12 30 20 33 17 3 -3 -6 -13 -20 -22
-14 -10 -26 -22 -26 -28 0 -6 15 3 33 20 29 28 124 95 172 121 23 13 111 16
119 4z m-3629 -157 c-29 -79 -32 -154 -10 -259 8 -38 13 -72 10 -74 -6 -6 -70
98 -83 135 -6 20 -7 44 -3 61 9 31 104 212 109 207 1 -1 -9 -33 -23 -70z
m3741 -50 c7 -19 14 -45 14 -59 0 -13 7 -51 15 -83 8 -32 15 -98 17 -148 3
-78 1 -90 -14 -93 -26 -5 -76 55 -93 112 -18 59 -19 122 -4 219 15 94 39 114
65 52z m-101 -38 c-15 -98 28 -281 96 -406 31 -57 37 -76 28 -87 -19 -23 -56
-16 -93 17 -47 41 -74 87 -102 173 -24 71 -24 71 -22 26 1 -64 0 -70 -17 -64
-32 13 -45 121 -21 189 18 52 32 55 28 5 -3 -25 0 -40 7 -40 6 0 11 8 11 17 0
37 44 177 62 195 26 26 30 23 23 -25z m-4099 -198 c23 -12 32 -26 45 -77 11
-42 36 -92 72 -145 54 -81 77 -120 77 -132 0 -14 -60 28 -113 78 -31 30 -57
53 -57 50 0 -3 14 -32 32 -65 28 -53 98 -128 120 -128 4 0 8 -9 8 -20 0 -46
-46 -17 -113 73 -57 75 -71 102 -107 204 -12 34 -30 69 -41 79 -25 22 -24 3 1
-38 11 -18 20 -42 20 -53 0 -16 -4 -14 -19 10 -19 33 -76 85 -92 85 -20 0 -7
34 26 67 31 31 40 35 74 30 21 -2 51 -11 67 -18z m3769 -1226 c14 -15 25 -30
25 -33 0 -3 -13 -14 -30 -23 -78 -46 -115 -183 -105 -383 8 -144 9 -140 -54
-159 -56 -17 -70 -46 -80 -168 -8 -109 -17 -134 -45 -124 -17 7 -32 55 -47
154 -18 117 12 257 69 323 28 34 36 53 44 113 5 39 15 97 21 127 l11 55 11
-60 c15 -79 8 -283 -11 -312 -8 -13 -10 -23 -5 -23 17 0 41 81 41 139 0 32 6
76 14 97 7 22 17 73 21 114 4 41 13 90 21 107 12 30 56 83 68 83 3 0 17 -12
31 -27z m-2190 -392 c28 -19 50 -47 72 -91 31 -63 32 -68 26 -152 -5 -78 -8
-89 -30 -104 -23 -14 -26 -14 -42 0 -41 37 -64 3 -57 -86 14 -169 16 -248 7
-248 -5 0 -17 7 -26 17 -15 14 -16 32 -10 150 7 133 7 134 -19 173 -30 46 -30
48 -14 238 13 161 11 159 93 103z m326 -73 c42 -89 44 -97 43 -180 -1 -105
-10 -120 -64 -112 -46 8 -50 0 -56 -121 -7 -127 -12 -155 -30 -155 -27 0 -36
49 -25 134 6 44 11 106 11 138 0 65 -13 79 -56 60 -22 -11 -24 -10 -24 16 0
32 40 180 64 237 22 52 66 98 81 85 6 -5 31 -51 56 -102z m1434 47 c14 -55 15
-72 5 -114 -8 -34 -18 -52 -31 -56 -27 -9 -36 0 -42 43 -4 22 -17 48 -32 62
-27 25 -28 58 -2 89 11 13 62 40 78 41 3 0 14 -29 24 -65z m-1981 -21 c29 -19
58 -46 64 -59 14 -31 -7 -377 -22 -372 -6 2 -15 37 -22 78 -6 41 -20 94 -32
119 -21 43 -22 44 -22 15 0 -16 7 -59 15 -95 14 -64 36 -468 27 -503 -2 -10
-10 -16 -16 -14 -7 2 -13 75 -16 228 -5 217 -6 226 -33 286 -25 58 -27 72 -27
201 0 76 3 142 7 145 11 12 22 8 77 -29z m845 12 c14 -16 51 -187 51 -234 0
-58 -21 -112 -50 -127 -31 -16 -50 -83 -50 -179 0 -40 -5 -69 -15 -82 -15 -19
-15 -19 -31 1 -13 17 -15 38 -10 130 3 61 8 131 12 157 6 40 4 49 -11 55 -13
5 -26 -2 -45 -25 -15 -18 -29 -30 -31 -27 -3 2 -1 46 3 97 8 90 10 94 43 123
19 17 48 51 65 78 30 48 49 57 69 33z m973 -60 c36 -8 56 -40 64 -99 6 -40 3
-53 -19 -86 -19 -28 -27 -55 -29 -97 -2 -44 -7 -59 -18 -59 -11 0 -16 14 -18
57 -3 62 -22 80 -62 58 -17 -9 -22 -7 -29 14 -6 13 -15 27 -20 31 -17 10 -13
34 18 115 15 41 31 84 35 94 6 18 7 18 29 -1 12 -11 34 -23 49 -27z m-1982
-40 l35 -24 0 -83 c0 -46 4 -96 9 -111 7 -24 5 -29 -18 -38 -31 -12 -56 -63
-56 -115 0 -19 -4 -35 -10 -35 -5 0 -10 13 -10 29 0 22 -9 37 -35 57 -31 23
-35 32 -35 70 0 24 9 77 20 116 11 40 20 80 20 90 0 29 19 68 33 68 7 0 28
-11 47 -24z m1294 -12 c10 -9 16 -33 16 -61 0 -25 5 -74 12 -109 9 -52 9 -75
-5 -136 -9 -40 -19 -90 -22 -110 -10 -63 -25 -43 -25 32 0 55 -3 70 -15 70 -8
0 -18 -8 -24 -17 -13 -26 -31 -153 -31 -223 0 -53 -2 -61 -17 -58 -15 3 -18
13 -16 58 3 115 21 257 37 299 10 27 13 49 7 59 -7 12 -11 7 -21 -22 -15 -46
-53 -65 -81 -40 -21 19 -12 54 26 94 12 14 38 52 56 85 53 98 71 111 103 79z
m481 -11 c8 -34 38 -127 56 -171 10 -25 11 -37 2 -51 -6 -10 -15 -40 -18 -67
-15 -98 -45 -110 -45 -18 0 58 -10 67 -35 32 -30 -43 -47 -131 -54 -272 -5
-128 -8 -141 -25 -144 -21 -4 -21 9 4 271 11 106 10 122 -6 155 -20 43 -12 86
37 192 46 99 74 123 84 73z m-215 -85 c6 -24 20 -68 31 -100 19 -51 20 -63 9
-135 -7 -43 -23 -121 -37 -173 -14 -57 -27 -139 -30 -205 -3 -60 -10 -118 -15
-127 -11 -22 -34 -23 -42 -2 -11 28 -6 137 9 204 20 90 18 123 -6 154 -20 26
-20 28 -5 67 26 64 6 96 -44 69 -23 -12 -34 4 -45 63 -6 31 -3 42 13 60 11 12
36 48 56 79 33 52 69 88 88 88 4 0 12 -19 18 -42z"/>
<path d="M2393 4210 c-12 -5 -35 -33 -50 -62 -26 -48 -28 -61 -26 -150 2 -107
-12 -132 -22 -40 -10 85 -17 93 -27 32 -15 -87 31 -341 78 -431 8 -17 13 -33
11 -36 -8 -7 -65 81 -73 111 -10 40 -24 42 -24 3 0 -48 34 -140 71 -191 17
-25 29 -50 27 -58 -3 -7 -22 13 -43 47 -22 33 -41 62 -42 64 -2 2 -6 1 -10 -2
-3 -4 5 -35 19 -70 15 -35 32 -91 38 -125 7 -34 23 -76 36 -94 22 -29 31 -58
20 -58 -50 0 -112 87 -151 210 -24 76 -26 95 -21 185 l5 100 -24 -79 c-14 -44
-25 -96 -25 -116 0 -20 -5 -41 -12 -48 -17 -17 7 -111 39 -159 15 -21 53 -77
85 -125 64 -94 108 -138 141 -138 17 0 13 6 -21 31 -60 44 -56 67 6 32 24 -14
37 -15 59 -8 41 15 43 64 4 146 -54 116 -55 165 0 58 16 -34 33 -59 36 -56 3
3 -7 37 -22 75 -22 56 -26 79 -21 118 19 156 19 160 -5 220 -17 46 -23 82 -25
164 -1 58 -5 137 -9 175 -9 82 -1 82 21 -1 16 -63 46 -116 85 -150 95 -84 149
-139 149 -151 0 -9 -10 -3 -24 14 -23 27 -126 91 -126 79 0 -10 106 -150 124
-165 22 -18 49 -71 42 -79 -4 -3 -13 4 -22 16 -8 12 -36 36 -62 53 -26 18 -60
44 -76 58 -32 29 -29 20 21 -53 18 -27 36 -60 40 -75 3 -14 17 -46 30 -70 23
-44 31 -87 14 -76 -5 3 -12 19 -16 35 -4 18 -23 42 -47 62 l-41 32 5 -90 c5
-78 11 -104 48 -187 23 -53 49 -102 57 -109 9 -7 41 -15 71 -18 l56 -5 -42
-29 c-23 -16 -40 -31 -38 -34 3 -2 34 9 69 25 73 35 122 93 163 192 32 81 31
139 -7 258 -37 117 -61 165 -146 302 -36 57 -78 133 -93 170 -60 143 -121 261
-139 271 -24 12 -107 12 -138 0z"/>
<path d="M2987 3873 c-12 -11 -8 -92 6 -126 15 -34 44 -64 53 -54 3 3 -1 16
-10 29 -18 25 -21 58 -6 58 6 0 10 -11 10 -25 0 -31 15 -32 32 -2 12 21 13 21
18 -13 4 -19 2 -43 -2 -52 -5 -11 -5 -18 1 -18 6 0 15 8 20 18 11 19 15 8 11
-35 -1 -13 3 -23 8 -23 5 0 13 10 17 23 7 18 9 14 14 -23 6 -43 7 -44 19 -22
10 18 11 34 3 73 -16 72 -34 101 -94 153 -50 43 -84 56 -100 39z"/>
<path d="M2931 3547 c-1 -4 15 -39 34 -78 27 -52 39 -92 46 -155 11 -91 13
-84 -59 -226 -2 -5 1 -8 6 -8 5 0 32 32 58 71 47 68 49 74 49 138 -1 71 -23
127 -74 186 -14 17 -34 42 -43 55 -9 14 -17 22 -17 17z"/>
</g>
</svg>
