<?xml version="1.0" standalone="no"?>
<!DOCTYPE svg PUBLIC "-//W3C//DTD SVG 20010904//EN"
 "http://www.w3.org/TR/2001/REC-SVG-20010904/DTD/svg10.dtd">
<svg version="1.0" xmlns="http://www.w3.org/2000/svg"
 width="682.000000pt" height="689.000000pt" viewBox="0 0 682.000000 689.000000"
 preserveAspectRatio="xMidYMid meet">
<metadata>
Created by potrace 1.16, written by Peter Selinger 2001-2019
</metadata>
<g transform="translate(0.000000,689.000000) scale(0.100000,-0.100000)"
fill="#191919" stroke="#546c60">
<path d="M3215 6390 c-5 -16 -11 -19 -23 -14 -10 5 -35 8 -56 8 -33 0 -45 -6
-71 -37 -17 -20 -37 -55 -44 -77 -14 -48 -25 -50 -41 -7 -31 81 -40 94 -79
112 -38 17 -53 17 -93 0 -13 -5 -18 -2 -18 9 0 9 -5 16 -11 16 -18 0 20 -98
46 -120 11 -9 12 -5 3 24 -13 40 -12 41 19 50 16 5 31 -1 57 -25 20 -17 33
-35 30 -40 -3 -5 3 -21 14 -37 10 -15 22 -35 25 -44 4 -10 16 -18 27 -18 15 0
27 15 48 57 33 71 60 101 91 105 35 4 47 -22 28 -60 -8 -18 -12 -32 -8 -32 17
0 79 135 68 147 -3 2 -8 -5 -12 -17z"/>
<path d="M1850 6262 c0 -11 40 -47 60 -54 28 -10 44 -55 34 -96 -8 -35 -11
-37 -48 -37 -42 0 -53 -12 -38 -42 4 -10 6 -31 2 -48 l-7 -30 -10 35 c-9 34
-10 35 -59 32 -42 -2 -54 2 -81 27 -18 16 -33 36 -33 45 0 9 -3 16 -8 16 -4 0
-7 -20 -7 -45 0 -39 3 -45 22 -45 12 0 28 -7 37 -15 8 -9 33 -15 56 -15 37 0
41 -2 38 -22 -2 -17 -17 -27 -59 -43 -31 -11 -67 -28 -81 -37 -42 -28 -118
-29 -118 -1 0 14 -2 14 -20 -2 -28 -25 -25 -35 10 -35 17 0 30 -4 30 -8 0 -12
-47 -32 -75 -32 -13 0 -27 -4 -30 -10 -3 -5 3 -10 14 -10 27 0 26 -13 -1 -42
-13 -13 -39 -44 -58 -70 -37 -50 -46 -56 -53 -35 -2 6 -3 4 -1 -6 1 -9 -6 -22
-17 -27 -10 -6 -19 -17 -19 -25 0 -9 -4 -23 -9 -33 -5 -9 -14 -36 -20 -59 -7
-24 -18 -43 -25 -43 -8 0 -19 -20 -25 -45 -6 -24 -19 -48 -29 -54 -14 -8 -17
-25 -19 -88 0 -43 -6 -98 -11 -123 -23 -105 -29 -163 -26 -295 1 -112 -1 -136
-10 -123 -12 16 -14 16 -28 -2 -16 -17 -14 -19 18 -27 41 -9 46 -27 10 -31
-17 -2 -23 -8 -19 -18 3 -8 0 -14 -6 -14 -6 0 -11 -5 -11 -11 0 -6 15 -9 37
-7 23 2 38 -2 41 -10 7 -22 -19 -42 -54 -42 -18 0 -43 -5 -56 -11 -22 -9 -30
-24 -74 -124 -10 -22 -24 -44 -31 -48 -15 -9 -18 -37 -4 -37 5 0 17 7 25 16
25 24 21 -7 -5 -40 -20 -26 -49 -35 -49 -16 0 18 -18 10 -23 -10 -4 -15 0 -20
15 -20 16 0 19 -5 15 -21 l-6 -21 22 20 c28 25 63 43 70 36 3 -3 1 -17 -5 -30
-18 -39 0 -41 32 -2 16 19 44 41 61 49 29 12 34 11 48 -8 16 -21 16 -21 54 10
21 16 42 26 46 21 12 -15 45 -123 39 -129 -3 -3 -24 -7 -47 -8 -32 -1 -41 -5
-41 -19 0 -10 -36 -54 -80 -99 -76 -77 -109 -94 -102 -54 5 26 -18 65 -38 65
-10 0 -23 -7 -30 -15 -7 -8 -19 -15 -26 -15 -8 0 -19 -12 -25 -27 -32 -79 -48
-92 -69 -54 -23 44 -1 136 31 126 12 -4 19 6 29 40 7 25 10 48 7 51 -3 4 -9
-6 -13 -20 -4 -19 -15 -29 -34 -32 -30 -6 -50 -47 -50 -102 0 -40 -14 -41 -32
-2 -13 30 -28 40 -28 19 0 -6 11 -33 24 -59 13 -27 22 -51 19 -54 -4 -3 -24
-6 -46 -6 -27 0 -37 -4 -34 -12 4 -13 9 -13 52 -8 60 7 103 -1 129 -25 26 -24
37 -75 16 -75 -6 0 -15 -12 -20 -26 -9 -23 -13 -25 -55 -19 -42 7 -45 6 -56
-21 -10 -28 -8 -69 8 -178 7 -44 10 -47 22 -33 14 18 38 21 65 11 25 -10 19
-31 -10 -38 l-27 -7 22 -15 c11 -8 21 -24 21 -34 0 -23 -29 -60 -47 -60 -7 0
-13 -9 -13 -19 0 -26 -17 -36 -56 -32 -26 2 -37 -5 -68 -40 -35 -41 -44 -60
-28 -58 20 3 18 -6 -13 -65 -19 -35 -35 -67 -35 -70 0 -14 26 -5 35 13 10 18
93 141 103 151 3 3 7 -1 9 -7 6 -17 23 -17 23 0 0 8 12 20 28 27 15 8 37 25
49 39 l23 26 0 -32 c0 -18 -4 -33 -8 -33 -4 0 -13 -21 -21 -47 -7 -27 -17 -59
-23 -73 -6 -14 -12 -64 -14 -112 -3 -72 0 -88 12 -88 12 0 12 -4 2 -19 -9 -15
-9 -25 -1 -43 7 -13 14 -32 16 -43 3 -15 6 -12 12 13 6 26 10 30 21 21 19 -15
18 -58 -1 -65 -29 -12 -23 -30 65 -191 29 -52 48 -62 42 -22 -4 24 -1 28 12
23 20 -8 30 -44 22 -76 -4 -13 5 0 20 27 34 65 33 64 55 36 18 -22 19 -22 19
-3 0 30 17 36 31 11 12 -24 5 -95 -13 -116 -16 -20 -1 -28 17 -9 18 18 35 13
35 -10 0 -8 12 -19 26 -24 33 -13 31 -14 39 13 6 19 8 19 12 5 2 -10 9 -18 14
-18 17 0 9 -29 -10 -40 -32 -16 -69 -12 -81 10 -6 11 -17 20 -25 20 -8 0 -15
5 -15 10 0 6 -5 10 -11 10 -7 0 -4 -10 6 -26 11 -17 13 -30 7 -36 -6 -6 -12
-6 -16 1 -11 18 -26 13 -26 -9 0 -29 -14 -25 -45 12 -21 25 -28 29 -36 17 -7
-12 -15 -10 -49 9 -33 18 -40 20 -40 7 0 -8 -7 -15 -15 -15 -8 0 -15 -7 -15
-15 0 -11 7 -13 28 -9 32 6 48 -7 55 -46 2 -14 2 -20 0 -14 -2 7 -15 14 -29
17 -24 4 -24 3 -9 -17 16 -22 35 -61 57 -113 7 -18 16 -33 20 -33 5 0 8 -6 8
-14 0 -20 48 -48 70 -41 14 4 20 2 20 -9 0 -8 9 -18 20 -21 26 -8 26 -22 0
-30 -27 -8 -17 -23 12 -19 14 3 34 -5 51 -21 28 -25 28 -51 0 -41 -11 5 -13 2
-9 -10 3 -8 6 -35 6 -59 0 -37 3 -44 25 -49 14 -4 28 -7 32 -7 13 0 21 59 10
70 -6 6 -7 14 -3 18 4 4 11 2 15 -5 5 -9 15 -10 30 -4 22 8 22 9 6 25 -9 9
-20 17 -25 17 -5 0 -41 31 -79 69 -58 55 -71 74 -71 99 0 17 -4 34 -10 37 -5
3 -10 29 -10 56 0 43 4 54 31 79 17 15 41 30 53 33 11 3 48 12 81 21 68 17
211 21 220 6 3 -5 14 -10 22 -10 14 0 13 4 -5 20 -32 30 -30 109 3 167 14 23
32 43 40 43 8 0 15 8 15 18 0 10 5 23 10 28 7 7 3 17 -10 32 -22 23 -40 29
-40 12 0 -6 -12 -16 -27 -22 -27 -11 -27 -12 -5 -15 28 -6 28 -16 -2 -32 -17
-10 -29 -10 -44 -2 -35 19 -42 13 -42 -33 0 -25 -5 -48 -10 -51 -5 -3 -10 -24
-10 -46 0 -21 -4 -39 -10 -39 -5 0 -10 18 -10 39 0 22 5 43 10 46 6 3 10 26
10 51 0 37 -3 44 -20 44 -16 0 -20 7 -20 30 0 54 -17 31 -24 -32 -3 -34 -10
-66 -14 -70 -5 -5 -23 -1 -41 8 -23 12 -31 21 -26 33 5 13 4 14 -6 4 -20 -20
-29 -15 -29 13 0 22 -2 24 -15 14 -21 -18 -38 -2 -31 31 5 28 -8 41 -17 17 -3
-8 -21 4 -46 31 -39 40 -42 47 -36 83 6 31 4 38 -9 38 -9 0 -25 9 -37 21 -29
29 -11 48 28 29 16 -8 51 -14 78 -15 l50 0 -3 -50 c-2 -37 0 -46 7 -35 6 8 11
31 11 51 0 40 11 53 53 63 20 5 27 3 27 -9 0 -8 9 -15 19 -15 12 0 23 -11 29
-27 6 -16 11 -22 11 -15 2 20 18 14 24 -10 5 -18 9 -19 21 -9 19 16 4 51 -29
69 -14 6 -35 17 -47 24 -13 6 -36 29 -53 50 -16 21 -40 52 -53 67 -12 16 -22
36 -22 44 0 9 -4 19 -10 22 -6 4 -10 -9 -10 -33 0 -21 -3 -42 -7 -46 -5 -4 -9
-12 -9 -17 -1 -5 -2 -13 -3 -19 -1 -10 -31 -14 -31 -4 0 3 4 13 9 23 12 21 2
37 -24 42 -12 3 -21 14 -23 27 -5 31 -32 28 -32 -3 0 -14 -4 -25 -10 -25 -6 0
-10 31 -10 72 0 57 -3 69 -12 60 -7 -7 -15 -36 -18 -65 -4 -37 -9 -52 -20 -52
-22 0 -24 42 -5 72 17 25 13 79 -5 68 -10 -6 -30 26 -30 50 0 11 7 15 23 13
13 -2 21 -9 19 -18 -2 -10 5 -7 21 8 20 19 26 20 30 9 3 -9 3 -26 0 -39 -4
-18 -3 -20 6 -8 6 8 11 23 11 33 0 9 4 17 9 17 14 0 24 -74 16 -122 -4 -30 -3
-39 4 -28 5 8 13 35 16 60 3 25 11 52 16 60 8 13 11 12 20 -3 6 -9 14 -15 20
-12 5 4 9 -1 9 -9 0 -9 -5 -16 -10 -16 -13 0 -8 -70 5 -71 6 0 12 8 14 17 4
21 30 49 54 57 9 4 17 16 17 27 0 23 18 27 26 5 9 -23 20 -18 38 18 15 31 16
32 16 6 0 -15 3 -41 6 -58 5 -25 10 -30 25 -26 15 5 19 1 19 -17 0 -41 -11
-65 -33 -76 -18 -9 -19 -11 -4 -11 9 -1 17 -5 17 -10 0 -5 10 -13 22 -17 13
-3 31 -13 41 -22 16 -14 17 -13 17 16 0 18 5 32 11 32 6 0 9 -14 8 -33 -4 -43
6 -57 43 -57 27 0 30 2 24 25 -4 14 -2 25 4 25 5 0 10 -8 10 -19 0 -14 10 -20
38 -25 58 -9 60 -8 73 29 7 19 19 35 26 35 7 0 13 7 13 15 0 19 -11 19 -57 0
-38 -16 -83 -20 -83 -7 0 19 -60 72 -74 66 -20 -8 -20 -6 5 45 18 38 20 85 2
67 -9 -9 -43 24 -43 42 0 9 8 24 17 34 13 14 15 23 7 35 -16 26 -35 27 -41 4
-6 -25 -28 -28 -37 -5 -10 26 -7 91 5 116 15 31 134 128 157 128 10 0 23 5 29
11 5 5 51 10 102 11 50 0 91 5 91 9 0 5 -7 9 -15 9 -17 0 -55 35 -55 50 0 18
41 10 98 -20 75 -39 153 -73 173 -74 21 -1 79 -48 79 -64 0 -7 -4 -10 -10 -7
-16 10 -12 -31 4 -44 16 -14 40 -75 26 -66 -5 3 -19 23 -31 45 -25 44 -39 38
-39 -17 0 -18 -4 -33 -10 -33 -5 0 -10 8 -10 18 0 31 -24 72 -42 72 -21 0 -23
-11 -7 -27 6 -6 17 -37 23 -69 13 -65 31 -80 41 -35 7 34 44 45 46 14 2 -42
-3 -89 -12 -97 -5 -6 -9 -23 -9 -38 0 -24 -25 -103 -37 -118 -10 -11 -22 28
-17 52 3 18 -1 36 -13 52 -23 32 -33 32 -33 1 0 -14 -2 -25 -5 -25 -3 0 -27
15 -53 33 -26 18 -64 41 -84 50 -33 15 -38 23 -38 51 0 45 -29 70 -69 61 -17
-4 -31 -3 -31 2 0 4 -11 22 -25 38 -25 30 -25 30 -23 5 3 -27 0 -30 -32 -30
-15 0 -20 7 -20 25 0 14 -4 25 -10 25 -5 0 -10 -10 -10 -23 0 -13 -5 -28 -12
-35 -9 -9 -9 -12 0 -12 7 0 12 5 12 12 0 7 15 -3 34 -21 30 -29 40 -33 70 -28
20 3 38 1 41 -4 4 -5 15 -9 26 -9 11 0 22 -8 25 -17 25 -77 60 -113 108 -113
34 0 62 -50 46 -81 -10 -18 -8 -22 18 -31 16 -6 39 -26 52 -45 13 -19 26 -30
29 -26 3 4 21 24 39 44 24 27 35 50 43 97 6 34 14 62 18 62 16 0 31 -26 31
-54 0 -17 14 -55 30 -85 17 -30 30 -62 30 -72 0 -10 9 -23 20 -29 11 -6 31
-34 45 -64 14 -29 36 -59 50 -66 16 -9 24 -19 20 -29 -3 -8 0 -18 7 -23 10 -6
10 -10 -2 -18 -21 -14 -74 -12 -88 2 -9 9 -15 9 -24 -1 -10 -11 -10 -14 0 -18
25 -9 11 -23 -23 -23 -19 0 -35 5 -35 10 0 6 5 10 10 10 6 0 10 5 10 10 0 11
-53 14 -63 3 -4 -3 0 -15 9 -24 15 -17 15 -19 1 -25 -8 -3 -24 -1 -36 5 -27
15 -29 14 -29 -11 1 -13 -3 -45 -7 -73 l-8 -50 32 29 c17 17 31 38 31 48 0 22
49 48 90 48 35 0 37 -7 10 -56 -40 -70 -14 -55 35 20 31 49 55 76 67 76 26 0
22 -14 -17 -65 -19 -25 -42 -62 -51 -83 -8 -20 -20 -45 -25 -54 -5 -10 -9 -27
-9 -37 0 -11 -4 -23 -10 -26 -6 -3 -10 -17 -10 -31 0 -14 4 -22 10 -19 5 3 10
15 10 27 0 30 65 158 100 197 35 39 51 35 23 -6 -46 -69 -84 -202 -82 -293 1
-63 17 -22 18 46 1 84 85 264 124 264 23 0 22 -3 -13 -67 -17 -30 -30 -62 -30
-72 0 -9 -5 -22 -11 -28 -6 -6 -9 -23 -7 -39 l4 -29 8 30 c16 64 67 155 87
155 25 0 24 -2 -11 -67 -32 -57 -38 -89 -18 -95 7 -3 9 -11 4 -24 -8 -19 -8
-19 -16 1 -7 18 -8 19 -15 2 -4 -9 -4 -29 1 -45 7 -25 8 -26 11 -4 8 45 23 20
23 -37 0 -33 5 -63 10 -66 6 -3 10 -15 10 -26 0 -10 5 -19 10 -19 13 0 13 27
0 35 -14 9 -12 161 3 187 25 45 34 50 57 31 18 -16 20 -25 14 -90 -5 -50 -3
-73 4 -73 6 0 12 21 14 47 l3 47 18 -28 c14 -21 19 -46 18 -102 0 -42 4 -74 9
-74 6 0 10 20 10 45 0 25 4 45 8 45 23 0 32 -30 32 -106 0 -50 4 -86 11 -90 8
-4 10 9 9 42 -5 100 6 122 30 64 9 -22 17 -29 30 -25 12 4 19 -1 23 -15 3 -11
11 -19 19 -18 10 2 14 -14 16 -64 2 -49 10 -80 29 -115 14 -26 35 -66 47 -88
24 -46 28 -163 8 -227 -31 -97 -35 -118 -39 -185 -3 -40 -6 -73 -8 -73 -25 0
-55 23 -55 43 0 13 -4 27 -9 32 -5 6 -11 44 -13 85 -5 89 -41 190 -69 197 -16
4 -19 15 -19 57 0 58 -13 113 -34 141 -14 19 -15 19 -33 2 -20 -17 -63 -24
-63 -9 0 5 9 17 20 27 15 14 20 31 20 72 0 48 -4 58 -35 91 -40 42 -47 40 -11
-3 45 -52 43 -144 -4 -155 -33 -8 -36 -26 -5 -46 17 -11 37 -15 59 -11 18 3
37 2 42 -1 17 -12 35 -115 28 -163 -6 -43 -4 -49 30 -84 20 -20 33 -42 29 -48
-4 -7 -9 -4 -13 8 -3 10 -7 -8 -7 -41 -1 -69 -12 -132 -24 -140 -5 -3 -9 4 -9
15 0 34 -16 31 -29 -6 -15 -40 -22 -36 -46 30 -17 45 -38 61 -48 35 -7 -19
-36 22 -37 52 -1 14 -7 39 -15 55 -14 29 -15 27 -9 -37 3 -38 2 -68 -3 -68
-21 0 -38 69 -37 153 1 48 -3 87 -8 87 -4 0 -8 -43 -8 -96 0 -64 -3 -93 -11
-89 -5 4 -9 17 -8 28 3 39 -1 57 -11 57 -5 0 -10 -23 -10 -51 0 -63 -15 -56
-23 10 -3 27 -15 68 -26 90 -11 22 -23 66 -27 98 -3 32 -9 67 -13 78 -14 36
-60 129 -84 170 -13 22 -32 63 -42 90 -10 28 -22 55 -26 60 -20 27 -59 157
-59 196 0 24 8 66 17 92 15 42 15 49 3 57 -19 12 -40 -14 -40 -51 0 -14 -14
-59 -30 -100 l-31 -73 22 -16 c26 -20 28 -80 5 -188 -20 -94 -34 -122 -73
-141 -37 -18 -39 -31 -19 -89 8 -22 13 -42 12 -44 -2 -1 -6 -15 -10 -30 -5
-22 -3 -26 9 -22 8 4 15 1 15 -5 0 -6 5 -11 10 -11 13 0 13 37 0 45 -6 3 -10
16 -10 27 0 20 1 20 19 4 12 -11 21 -14 26 -7 3 6 13 11 21 11 16 0 20 -55 4
-65 -14 -9 -12 -123 3 -165 25 -69 47 -98 97 -129 28 -17 54 -31 58 -31 24 0
52 49 52 91 0 25 5 50 12 57 9 9 7 12 -10 12 -12 0 -22 5 -22 10 0 6 -6 10
-13 10 -7 0 -28 11 -46 24 -26 20 -37 23 -51 14 -20 -13 -48 -5 -56 17 -10 25
4 61 40 104 32 38 55 111 60 191 0 14 6 24 11 22 37 -9 48 -18 66 -54 29 -57
49 -127 38 -134 -5 -3 -19 2 -31 10 -34 24 -58 20 -58 -9 0 -26 15 -34 22 -13
3 7 18 1 41 -18 44 -34 46 -44 12 -44 -25 0 -25 -1 -10 -30 8 -16 15 -40 15
-55 0 -14 5 -25 10 -25 6 0 10 5 10 10 0 6 4 10 8 10 5 0 10 -21 11 -47 2 -56
16 -81 86 -150 38 -36 55 -47 59 -37 10 26 116 7 116 -21 0 -7 3 -20 6 -29 5
-12 0 -16 -20 -16 -38 0 -34 -32 10 -68 35 -29 36 -30 20 -60 -9 -18 -16 -56
-16 -92 0 -44 -4 -60 -14 -60 -51 0 -197 101 -289 200 -65 70 -80 103 -57 126
7 7 -4 18 -35 34 -25 13 -45 27 -45 31 0 11 -41 9 -68 -4 -19 -9 -26 -7 -44
10 -21 22 -18 43 8 43 16 0 18 13 5 38 -27 51 -41 94 -41 127 0 30 -3 35 -13
26 -7 -6 -27 -10 -43 -10 -16 0 -40 -1 -54 -3 -22 -3 -25 0 -22 25 1 15 1 27
-1 27 -3 0 -25 -9 -50 -20 -25 -11 -52 -18 -60 -14 -10 3 -18 -2 -21 -14 -4
-11 -16 -22 -27 -25 -17 -5 -19 -9 -9 -27 l11 -21 19 23 c21 27 37 19 21 -10
-20 -38 -7 -86 14 -52 3 6 14 10 23 10 15 -1 15 -2 -1 -15 -15 -10 -17 -21
-12 -44 6 -30 -6 -43 -20 -21 -10 17 -35 11 -35 -8 0 -11 -8 -29 -19 -41 -10
-11 -21 -39 -25 -60 -4 -27 -12 -42 -26 -46 -26 -8 -25 -23 6 -79 17 -30 23
-53 19 -67 -8 -24 12 -78 35 -96 8 -7 26 -13 40 -13 14 -1 19 -4 13 -7 -7 -2
-13 -8 -13 -13 0 -4 6 -7 13 -7 31 3 105 -28 131 -54 26 -27 46 -37 46 -23 0
12 -24 50 -39 61 -23 18 3 16 39 -2 41 -21 65 -65 35 -65 -20 0 -19 -10 3 -26
24 -18 33 -17 30 4 -2 11 4 18 19 20 22 3 22 4 -8 44 -34 48 -26 71 16 48 14
-7 27 -11 30 -8 10 10 -5 33 -27 43 -31 14 -68 72 -68 106 0 26 4 29 30 29 17
0 30 -4 30 -10 0 -5 5 -10 12 -10 6 0 -11 23 -39 51 -73 73 -122 184 -107 243
3 11 18 29 35 38 32 19 33 19 43 -40 8 -48 45 -92 77 -92 32 0 58 -34 66 -87
7 -43 -12 -60 -39 -36 -10 9 -18 11 -18 5 0 -13 39 -42 57 -42 7 0 13 9 13 20
0 27 37 27 45 -1 4 -11 19 -28 33 -37 42 -26 132 -127 132 -147 0 -14 -6 -16
-30 -13 -16 3 -30 0 -30 -5 0 -5 -8 -6 -17 -3 -9 4 -20 1 -24 -5 -8 -14 9 -69
22 -69 6 0 8 -12 7 -27 -3 -26 0 -28 35 -29 25 -1 46 -9 62 -24 46 -43 26 -60
-70 -60 -54 1 -89 19 -80 42 7 17 -33 38 -70 38 -14 0 -25 5 -25 10 0 6 -8 10
-18 10 -10 0 -23 5 -30 12 -8 8 -12 8 -12 1 0 -6 24 -22 53 -36 28 -15 58 -35
65 -46 16 -28 75 -51 127 -51 25 0 48 -6 55 -15 6 -8 24 -13 40 -12 25 2 28 6
33 44 9 86 59 121 123 87 45 -24 58 -47 44 -75 -37 -68 54 -101 187 -68 69 17
115 42 187 102 39 31 30 57 -19 57 -38 0 -57 22 -36 43 10 10 98 27 146 28 42
1 146 -18 157 -29 19 -19 1 -41 -39 -44 -30 -2 -38 -7 -38 -23 0 -22 76 -84
141 -114 49 -24 146 -36 208 -27 52 8 67 32 45 73 -13 24 -11 28 25 59 41 36
64 41 98 23 24 -13 48 -67 48 -109 0 -28 3 -30 35 -30 24 0 35 5 35 15 0 11
13 15 54 15 30 0 58 5 61 10 4 6 -16 10 -54 10 -71 0 -91 6 -91 30 0 22 30 50
30 29 1 -10 4 -9 14 4 7 9 23 17 35 17 11 0 21 5 21 11 0 5 4 8 9 5 5 -3 18
18 30 47 l22 52 -22 18 c-24 20 -42 21 -70 7 -16 -9 -19 -7 -19 9 0 22 90 130
123 148 12 6 32 25 45 42 12 17 28 28 35 25 8 -3 17 12 26 41 13 45 41 75 71
75 21 1 55 28 46 37 -4 4 -16 2 -27 -5 -16 -10 -27 -10 -53 -1 -28 10 -37 9
-62 -7 -16 -11 -38 -25 -49 -30 -13 -8 -20 -21 -20 -41 0 -56 -148 -205 -273
-275 -96 -54 -102 -52 -102 26 0 54 -4 69 -25 94 -57 67 -50 105 21 123 40 10
75 39 87 72 7 20 17 2 20 -34 1 -19 11 -42 22 -52 30 -28 76 -50 85 -40 4 4 3
36 -3 69 l-10 62 43 73 c62 106 80 115 80 41 0 -38 5 -53 23 -70 29 -27 37
-27 84 -1 56 31 63 39 89 94 41 90 47 129 28 189 -20 63 -14 91 17 81 13 -4
27 -1 39 10 11 10 26 14 38 11 19 -6 33 12 47 61 5 18 -1 26 -34 42 -34 18
-42 28 -60 83 -11 35 -23 100 -27 145 -6 79 -5 84 17 102 23 19 23 20 7 48 -9
15 -16 30 -15 33 0 3 -7 21 -15 40 -9 19 -21 75 -28 125 -6 49 -13 92 -16 97
-3 4 -15 3 -29 -2 -17 -6 -27 -5 -35 5 -9 11 -5 14 25 17 45 4 45 24 0 21 -23
-2 -35 2 -35 11 0 21 12 27 29 14 10 -8 9 -4 -3 10 -23 27 -68 30 -64 5 2 -14
-5 -19 -29 -21 -19 -2 -33 1 -33 7 0 6 5 11 10 11 6 0 10 7 10 15 0 18 -2 18
-35 3 -30 -13 -33 -38 -6 -38 11 0 23 -4 26 -10 3 -5 15 -10 26 -10 12 0 23
-10 30 -27 13 -34 48 -73 65 -73 17 0 54 -40 54 -57 0 -8 -12 -13 -31 -13 -28
0 -31 -3 -24 -23 3 -12 13 -55 21 -95 13 -65 13 -76 -1 -104 -8 -17 -15 -42
-15 -55 0 -13 -4 -22 -9 -18 -22 13 -22 -60 -1 -109 16 -39 19 -55 11 -75 -6
-14 -10 -33 -9 -41 6 -69 -16 -128 -24 -62 -2 16 -8 26 -17 24 -24 -5 -61 50
-61 93 l-1 40 -29 -35 c-17 -19 -30 -40 -30 -47 0 -7 -4 -13 -8 -13 -5 0 -15
-19 -22 -42 -7 -24 -16 -56 -21 -72 -5 -16 -9 -40 -9 -52 0 -13 -5 -24 -10
-24 -11 0 -14 7 -25 54 -5 23 -8 27 -16 15 -12 -19 -11 -59 1 -59 6 0 10 -41
10 -103 0 -79 -4 -112 -17 -138 l-18 -34 -3 28 c-2 15 -8 27 -13 27 -5 0 -9
18 -9 41 0 24 4 38 10 34 6 -3 10 -22 10 -41 0 -19 4 -34 9 -34 5 0 9 47 8
105 -1 58 -5 105 -9 105 -5 0 -8 -6 -8 -14 0 -8 -5 -18 -11 -22 -15 -9 -1 168
18 226 14 39 45 80 62 80 3 0 13 4 21 10 12 7 11 12 -5 30 -15 17 -19 41 -23
130 -3 61 -9 113 -13 116 -5 3 -9 13 -9 23 0 32 -49 116 -102 175 -10 10 -15
23 -12 27 9 16 32 -3 53 -44 29 -55 49 -82 57 -75 5 6 -8 33 -80 161 -26 47
-31 74 -11 59 11 -8 83 -103 110 -145 10 -15 19 -26 21 -24 6 6 -40 92 -69
131 -15 19 -27 39 -27 45 0 6 -4 11 -9 11 -5 0 -11 9 -14 20 -3 11 -3 20 1 20
3 0 31 -27 64 -61 32 -33 58 -58 58 -54 0 4 -21 33 -46 66 -25 33 -48 74 -51
94 -5 31 -9 35 -34 35 -23 0 -29 5 -29 21 0 28 18 59 35 59 8 0 18 6 22 13 4
8 23 17 42 21 19 3 53 22 77 41 23 19 47 35 53 35 6 0 11 5 11 11 0 6 10 25
23 42 19 28 22 43 20 119 0 48 -4 92 -8 99 -14 22 -25 -15 -25 -84 0 -42 -6
-82 -16 -103 -17 -36 -121 -127 -135 -118 -18 11 -8 24 41 56 27 18 50 38 50
45 0 22 -20 24 -42 4 -12 -12 -27 -21 -34 -21 -7 0 -32 -22 -56 -50 -28 -32
-51 -50 -65 -50 -27 0 -31 -17 -5 -23 14 -3 12 -6 -9 -15 -52 -21 -77 -92 -39
-112 31 -17 26 -76 -10 -133 -18 -28 -30 -61 -30 -80 0 -25 -9 -42 -39 -71
-35 -35 -40 -44 -37 -80 6 -82 30 -102 38 -31 6 48 46 137 64 143 43 12 34
-243 -11 -344 -25 -54 -71 -99 -138 -133 -57 -28 -156 -60 -189 -61 -15 0 -30
-5 -34 -11 -10 -17 -102 -5 -165 22 -30 12 -78 38 -107 56 -29 18 -55 33 -58
33 -4 0 -35 28 -70 62 -70 68 -154 190 -175 253 -7 22 -23 54 -36 72 -27 37
-29 47 -8 39 18 -6 19 6 4 59 -6 22 -12 59 -13 82 -2 46 -27 74 -78 87 -16 3
-28 11 -28 16 0 6 -8 10 -18 10 -17 0 -47 31 -96 100 -87 123 -136 200 -142
226 -4 16 -11 35 -17 42 -12 15 -2 94 15 121 9 16 9 23 -3 37 -12 15 -12 16 1
11 8 -4 23 -10 33 -13 20 -7 57 -73 57 -102 0 -52 40 -14 71 69 32 84 19 144
-40 185 -15 11 -21 26 -21 54 0 21 -4 42 -10 45 -11 7 -13 -8 -11 -76 0 -34
-3 -49 -14 -53 -19 -7 -32 21 -17 36 8 8 8 17 1 30 -5 10 -8 22 -5 27 8 12
-96 111 -117 111 -6 0 -19 8 -30 18 -20 17 -20 17 -4 -8 9 -14 32 -38 52 -53
36 -29 47 -54 18 -43 -9 4 -20 1 -24 -6 -6 -9 -11 -8 -25 3 -9 8 -32 14 -51
14 -26 0 -38 6 -51 27 -15 25 -10 55 6 32 15 -22 54 -42 73 -37 25 7 24 17 -4
36 -13 8 -39 38 -58 66 -46 68 -73 70 -49 4 l10 -28 -20 25 c-11 14 -20 37
-20 53 0 15 -4 27 -10 27 -5 0 -10 5 -10 11 0 7 -16 45 -35 85 -19 40 -35 82
-35 93 0 11 -4 22 -9 25 -20 13 -44 253 -37 370 10 162 54 279 159 418 110
146 330 319 402 316 19 -1 40 4 48 10 7 6 33 14 57 18 25 4 39 9 32 12 -28 9
-7 19 69 32 45 8 86 19 92 25 10 11 270 9 297 -2 8 -4 28 -8 45 -10 16 -2 34
-8 39 -13 6 -6 17 -10 26 -10 49 0 245 -96 325 -160 81 -64 215 -209 215 -232
0 -5 23 -42 50 -83 28 -41 50 -77 50 -80 0 -3 9 -27 21 -53 12 -26 26 -58 31
-72 6 -14 15 -34 20 -44 6 -11 10 -98 10 -200 0 -103 4 -170 8 -156 12 37 12
358 0 365 -18 11 -12 47 7 43 20 -4 57 -65 75 -125 15 -50 28 -56 28 -12 0 17
4 28 10 24 15 -9 12 -56 -6 -122 -9 -32 -20 -78 -25 -103 -20 -99 -27 -127
-48 -173 -28 -64 -27 -109 5 -162 26 -45 25 -65 -2 -65 -23 0 -17 -51 13 -111
15 -30 30 -67 33 -84 3 -17 11 -29 19 -27 9 2 12 -9 10 -40 -3 -38 -1 -43 26
-54 44 -19 53 -17 57 13 3 23 19 35 133 92 72 36 143 76 159 88 46 37 75 5 41
-44 -15 -21 -15 -21 73 -22 96 -1 152 -16 197 -54 17 -14 44 -37 62 -52 17
-14 37 -41 43 -60 6 -19 15 -35 20 -35 4 0 17 -18 29 -40 17 -33 19 -45 10
-62 -14 -26 -26 -14 -38 37 -8 34 -10 37 -16 18 -11 -35 -35 -37 -47 -3 l-10
30 -20 -26 -21 -26 21 -28 21 -28 -20 -26 c-11 -14 -27 -26 -35 -26 -16 0 -19
-26 -4 -35 6 -3 10 -15 10 -25 0 -10 8 -24 18 -29 15 -9 15 -10 -5 -11 -12 0
-36 -17 -56 -40 -38 -44 -52 -47 -114 -24 -24 9 -46 14 -49 11 -3 -3 6 -21 20
-40 14 -19 26 -38 26 -44 0 -14 180 -13 181 1 1 6 2 21 3 33 1 13 6 22 11 20
6 -1 9 -8 8 -15 0 -8 5 -11 14 -8 8 3 18 6 22 6 5 0 20 10 35 21 25 20 26 22
11 39 -23 26 -26 86 -4 82 12 -2 20 11 29 43 14 49 30 60 30 20 0 -31 15 -33
25 -2 l8 22 4 -23 c7 -33 30 -38 64 -13 17 12 42 23 57 24 22 2 28 -3 30 -23
7 -48 21 -43 28 9 4 28 10 51 15 51 5 0 9 -5 9 -10 0 -6 11 -8 25 -4 20 5 27
1 34 -17 l10 -24 0 23 c1 15 7 22 21 22 28 0 28 -50 0 -57 -11 -3 -20 -8 -20
-12 0 -3 -5 -13 -10 -21 -8 -13 -11 -12 -24 5 -14 19 -15 16 -16 -35 0 -31 5
-61 11 -67 15 -15 4 -43 -17 -43 -12 0 -15 7 -11 26 2 14 -1 31 -8 38 -7 7
-15 24 -18 37 -3 13 -4 -1 -3 -31 1 -53 0 -55 -26 -58 -16 -2 -28 -8 -28 -13
0 -5 -9 -9 -21 -9 -13 0 -20 6 -18 18 1 9 0 26 -1 37 -1 17 -3 16 -14 -7 -6
-15 -20 -34 -31 -42 -13 -9 -19 -26 -19 -50 0 -29 -3 -35 -17 -31 -9 3 -23 0
-31 -7 -20 -19 -49 -37 -81 -51 -29 -12 -41 -35 -31 -61 9 -22 24 -20 24 3 0
11 5 23 10 26 6 3 10 -2 10 -12 0 -10 5 -25 11 -33 8 -12 10 -10 8 10 -3 49 1
60 21 60 11 0 20 5 20 10 0 6 5 10 10 10 6 0 10 -7 10 -15 0 -11 8 -13 30 -9
28 6 30 4 30 -22 0 -16 5 -36 10 -44 7 -11 10 -4 10 27 l0 42 39 -1 c22 0 50
7 62 16 29 20 39 20 39 1 0 -8 -9 -15 -20 -15 -13 0 -24 -10 -31 -27 -6 -16
-16 -35 -24 -43 -7 -8 -15 -33 -17 -55 -2 -31 -7 -40 -20 -39 -13 1 -18 -5
-18 -22 0 -28 -16 -40 -35 -24 -11 9 -14 6 -17 -17 -2 -15 -8 -27 -15 -26 -7
2 -17 -6 -23 -17 -6 -11 -15 -18 -20 -15 -5 3 -12 1 -15 -5 -4 -6 -15 -8 -26
-5 -15 5 -19 1 -19 -14 0 -12 -4 -21 -10 -21 -5 0 -10 12 -10 28 -1 26 -20 62
-34 62 -10 0 -7 -68 4 -75 6 -3 10 -26 10 -51 0 -28 -4 -43 -10 -39 -5 3 -10
21 -10 38 -1 37 -19 66 -41 64 -7 -1 -15 3 -16 8 -2 6 5 10 15 10 18 0 28 35
18 61 -5 12 -13 10 -43 -11 -55 -37 -116 -29 -82 11 10 13 10 17 -2 25 -19 12
-25 11 -38 -5 -8 -10 -9 -16 -1 -21 5 -3 10 -15 10 -27 0 -11 8 -22 20 -25 11
-3 30 -28 44 -56 29 -56 27 -116 -3 -151 -15 -18 -15 -18 7 -7 44 23 225 10
284 -20 10 -5 24 -9 32 -9 8 0 28 -12 45 -26 28 -23 31 -31 31 -84 0 -32 -4
-62 -10 -65 -10 -6 -15 -65 -6 -65 3 0 20 9 40 20 29 18 45 36 50 60 1 3 7 15
14 28 7 12 10 27 7 32 -8 13 -35 1 -35 -16 0 -16 -16 -19 -25 -5 -3 5 6 22 20
38 13 15 25 22 25 16 0 -7 4 -13 9 -13 12 0 71 59 71 71 0 12 -17 12 -25 -1
-11 -18 -26 -10 -23 11 4 29 35 49 47 30 5 -7 14 -10 20 -7 16 10 13 36 -4 36
-8 0 -15 7 -15 15 0 18 -2 18 -45 1 -18 -8 -41 -26 -50 -40 -14 -21 -20 -24
-31 -15 -8 6 -14 18 -14 25 0 19 -16 18 -24 -1 -9 -23 -43 -18 -50 8 -3 12 -1
24 4 25 16 6 12 22 -5 22 -8 0 -15 -6 -15 -13 0 -18 -32 -47 -52 -47 -22 0
-47 32 -30 37 6 3 12 13 12 24 0 10 5 19 10 19 6 0 10 -7 10 -15 0 -20 7 -19
32 4 14 14 21 34 23 71 3 53 11 72 23 53 10 -17 61 -4 73 19 8 15 7 24 -6 38
-15 17 -15 19 7 34 l23 17 3 -48 c2 -28 11 -59 22 -73 l19 -25 7 33 c7 34 24
41 44 17 19 -23 25 -19 51 38 13 28 27 54 32 55 4 2 7 10 7 18 0 8 5 23 12 33
15 24 -13 65 -44 66 -19 0 -24 6 -26 33 -3 33 11 44 22 16 10 -25 28 -4 22 26
-3 15 -3 30 0 33 8 8 46 -32 39 -42 -6 -11 4 -41 15 -41 4 0 10 17 13 38 3 20
11 56 18 79 10 33 10 52 0 100 -21 99 -33 137 -52 174 -19 37 -26 89 -11 89 4
0 16 -13 25 -30 10 -16 26 -30 37 -30 13 0 25 -17 41 -56 13 -31 25 -51 27
-45 5 15 22 14 22 -1 1 -18 77 -104 85 -97 6 6 -37 93 -56 113 -14 16 -10 46
5 46 9 0 -2 18 -26 45 -26 29 -49 45 -65 45 -18 0 -23 5 -23 25 0 21 5 25 28
25 21 0 36 10 60 42 18 24 28 44 22 46 -17 6 -12 30 15 72 28 44 31 60 13 60
-7 0 -26 -20 -41 -45 -16 -24 -37 -47 -47 -50 -15 -5 -18 -12 -14 -34 5 -22
-1 -36 -23 -61 -34 -38 -56 -36 -75 5 -13 29 0 62 22 57 7 -1 10 3 8 10 -3 7
-18 15 -34 18 l-29 5 25 18 c13 9 32 17 42 17 19 0 32 59 31 146 0 70 -7 78
-59 70 -41 -5 -44 -4 -64 30 -38 60 -6 109 76 116 38 3 39 3 36 41 -2 21 1 37
7 37 14 0 33 64 40 140 4 47 10 64 19 62 8 -1 16 6 19 17 3 11 14 23 25 27 19
6 19 7 -8 29 -16 12 -34 21 -41 18 -9 -4 -10 5 -6 33 6 36 5 37 -20 30 -29 -7
-35 2 -15 22 9 9 9 15 0 24 -13 13 -17 68 -4 68 4 0 13 10 21 21 10 18 10 23
0 30 -19 11 -29 2 -29 -27 0 -40 -16 -27 -40 31 -26 63 -46 86 -56 61 -4 -10
1 -25 11 -36 20 -23 65 -116 65 -136 0 -22 -17 -16 -38 13 l-20 28 -7 -38 c-4
-20 -11 -40 -16 -43 -29 -18 14 -76 76 -103 52 -23 59 -27 63 -39 2 -7 -10
-15 -27 -18 -19 -4 -31 -13 -31 -22 0 -12 3 -13 12 -4 7 7 16 12 20 12 11 0
10 -117 -1 -124 -4 -3 -11 -20 -15 -37 -8 -42 -29 -32 -37 17 -8 49 -27 99
-36 90 -3 -3 -15 1 -25 11 -17 15 -18 15 -18 -8 0 -29 17 -49 42 -49 13 0 18
-8 19 -27 3 -70 -7 -113 -27 -113 -18 0 -36 41 -23 54 9 10 -17 46 -34 46 -5
0 -24 7 -43 16 -50 24 -68 13 -61 -36 4 -30 2 -40 -9 -40 -8 0 -60 45 -116
100 -56 55 -109 100 -117 100 -9 0 -24 7 -34 14 -16 12 -16 19 -5 72 9 38 19
60 29 62 8 1 36 -13 61 -33 26 -19 49 -35 51 -35 3 0 7 9 10 20 9 33 44 23 93
-25 24 -25 47 -45 50 -45 3 0 3 14 -1 30 -8 35 7 39 45 13 17 -12 25 -13 28
-5 2 7 12 12 23 12 23 0 24 6 3 27 -13 14 -17 14 -24 3 -7 -12 -13 -11 -29 4
-22 20 -29 56 -11 56 6 0 13 -7 16 -15 4 -8 10 -15 15 -15 18 0 8 26 -21 54
-17 16 -30 40 -30 52 0 27 -53 109 -76 118 -9 3 -30 6 -47 7 -56 1 -154 69
-100 69 10 0 33 -4 51 -9 46 -14 65 -5 49 21 -10 17 -19 19 -64 14 l-52 -6 4
50 c4 57 15 75 51 84 30 8 22 26 -12 26 -18 0 -24 5 -24 21 0 16 4 19 20 14
27 -9 25 4 -7 37 -22 23 -24 30 -13 43 11 14 11 21 -4 45 -9 16 -15 39 -12 52
13 63 15 108 6 108 -5 0 -10 -9 -10 -20 0 -11 -5 -20 -11 -20 -11 0 -10 9 7
108 7 39 24 43 24 5 1 -23 2 -25 10 -11 7 11 6 25 -1 42 -14 31 -4 69 12 46 8
-11 9 -6 5 19 -3 18 -6 37 -6 42 0 5 -7 9 -14 9 -10 0 -19 -20 -27 -60 -14
-71 -32 -74 -39 -7 -3 26 -13 52 -22 59 -9 7 -23 33 -31 58 -13 39 -45 116
-54 129 -9 13 -13 -10 -4 -26 20 -36 70 -195 93 -298 5 -22 14 -60 21 -85 15
-61 14 -429 -2 -459 -7 -12 -15 -53 -18 -92 -6 -67 -22 -105 -24 -57 -1 13 -5
3 -11 -22 -14 -70 -19 -79 -28 -55 -7 18 -9 16 -15 -12 -9 -38 -25 -44 -25
-10 0 25 -20 63 -20 38 0 -35 -12 3 -20 62 -8 67 -49 172 -57 149 -7 -19 -63
35 -63 60 0 11 -4 16 -10 13 -5 -3 -10 -28 -10 -56 0 -27 -4 -49 -10 -49 -5 0
-10 14 -10 30 0 49 -19 34 -22 -17 -3 -41 -6 -48 -25 -51 -15 -2 -24 -13 -28
-33 -4 -16 -9 -29 -11 -29 -13 0 -54 55 -54 72 0 10 -4 26 -9 36 -5 9 -17 36
-26 59 -10 22 -41 65 -71 95 -33 32 -54 62 -54 76 0 12 5 22 10 22 6 0 10 5
10 10 0 6 -7 10 -15 10 -19 0 -19 11 0 36 20 27 19 36 -5 29 -29 -9 -25 9 10
48 17 19 30 37 30 41 0 11 -19 6 -35 -10 -9 -9 -18 -14 -21 -11 -9 9 18 44 50
63 35 21 17 33 -20 13 -40 -21 -38 -3 5 40 62 64 130 91 224 91 50 0 76 4 72
10 -3 6 -49 10 -102 10 -85 0 -102 -3 -158 -30 -78 -37 -135 -99 -183 -197
-19 -40 -38 -70 -43 -67 -13 8 -11 19 13 72 19 42 73 129 87 142 3 3 13 14 21
25 14 19 14 19 -5 5 -27 -20 -73 -69 -84 -89 -6 -9 -13 -12 -18 -7 -4 5 -2 11
5 13 6 3 12 9 12 14 0 8 20 36 49 66 7 7 11 17 7 20 -10 10 -54 -36 -99 -102
-49 -74 -46 -70 -53 -63 -3 3 -1 14 4 25 53 109 75 142 122 189 30 29 64 60
75 68 11 9 16 16 12 16 -16 0 -73 -46 -134 -108 -59 -59 -86 -67 -43 -12 11
14 20 30 20 35 0 6 14 25 31 43 17 18 29 36 25 39 -8 9 -96 -89 -96 -107 0 -6
-4 -10 -10 -10 -5 0 -10 -7 -10 -15 0 -8 -4 -15 -10 -15 -5 0 -10 4 -10 8 0
15 25 62 33 62 4 0 7 6 7 13 0 6 18 36 41 66 22 29 38 55 36 58 -7 6 -117
-128 -117 -141 0 -6 -9 -22 -20 -36 -16 -21 -20 -22 -20 -7 0 34 84 182 130
227 3 3 12 14 20 25 14 18 14 18 -6 5 -24 -17 -70 -70 -104 -120 -13 -19 -27
-37 -30 -40 -4 -3 -10 -14 -13 -24 -4 -10 -10 -16 -14 -13 -10 11 58 135 100
183 21 24 34 44 28 44 -5 0 -31 -24 -56 -54 -43 -50 -54 -66 -92 -138 -23 -44
-35 -45 -27 -1 7 39 80 198 112 243 9 13 11 21 4 16 -18 -11 -84 -112 -111
-171 -13 -27 -27 -58 -32 -67 -5 -10 -9 -26 -9 -37 0 -21 -25 -47 -33 -34 -11
17 45 193 74 235 21 30 23 38 9 38 -5 0 -10 -7 -10 -15 0 -8 -4 -15 -9 -15 -7
0 -71 -119 -71 -133 0 -3 -7 -21 -15 -42 -13 -29 -19 -34 -29 -25 -11 8 -12
19 -4 48 21 82 52 173 60 178 4 3 8 12 8 20 0 25 -15 8 -39 -43 -13 -26 -26
-55 -30 -63 -4 -8 -14 -36 -22 -62 -7 -27 -17 -48 -21 -48 -11 0 -10 57 2 105
21 83 33 121 43 142 6 13 8 26 5 29 -4 3 -14 -12 -23 -33 -31 -69 -30 -67 -62
-188 -6 -24 -8 -17 -11 40 -2 38 1 79 7 90 5 11 12 31 14 45 2 14 8 34 12 45
5 13 5 17 -2 10 -23 -23 -51 -112 -70 -222 -3 -18 -9 -33 -14 -33 -13 0 -11
134 2 147 6 6 9 23 7 39 -3 18 -6 23 -10 14 -19 -54 -28 -91 -28 -123 0 -20
-4 -39 -10 -42 -6 -4 -10 18 -10 59 0 37 -4 66 -10 66 -5 0 -10 -18 -10 -39 0
-22 -4 -43 -10 -46 -5 -3 -10 -22 -10 -41 0 -19 -5 -34 -11 -34 -8 0 -10 15
-5 48 4 26 10 64 13 85 4 24 2 37 -6 37 -6 0 -11 -16 -11 -35 0 -41 -17 -47
-22 -7 -4 24 -5 25 -12 7 -4 -11 -11 -29 -16 -40 -4 -11 -14 -41 -20 -67 -15
-56 -35 -66 -26 -13 3 19 9 51 12 70 4 23 2 35 -5 35 -6 0 -11 -9 -11 -20 0
-11 -4 -20 -10 -20 -5 0 -10 -11 -10 -24 0 -14 -4 -28 -10 -31 -13 -8 -13 31
0 56 6 10 12 44 14 75 1 31 7 59 13 62 6 4 14 18 18 32 23 75 172 209 263 236
31 9 66 20 77 24 73 27 390 43 433 21 22 -11 73 -26 142 -41 30 -7 66 -20 80
-29 14 -9 46 -27 72 -40 53 -26 217 -191 218 -219 1 -10 39 -59 40 -50 0 11
-39 79 -66 115 -36 47 -104 115 -149 148 -22 17 -42 33 -45 36 -12 16 -87 49
-110 49 -23 0 -25 4 -27 50 l-1 50 43 0 c29 0 45 5 49 15 3 8 17 15 31 15 21
0 25 5 25 29 0 16 3 43 6 60 4 20 3 31 -5 31 -6 0 -11 -14 -11 -31 0 -22 -9
-38 -32 -57 -42 -36 -57 -41 -91 -28 -24 9 -31 8 -43 -8 -8 -11 -14 -32 -14
-48 0 -15 -5 -28 -11 -28 -7 0 -9 11 -5 33 4 17 10 49 13 71 5 38 5 38 -23 32
-29 -6 -47 3 -71 35 -19 24 2 74 42 99 18 11 38 27 45 35 11 13 8 15 -15 15
-36 0 -88 -54 -100 -106 -8 -29 -16 -40 -33 -42 -17 -3 -21 -8 -17 -23 6 -17
1 -19 -44 -19 -27 0 -53 -4 -56 -10 -4 -6 11 -10 37 -10 24 0 49 -5 55 -11 8
-8 13 -5 18 11 10 32 26 20 53 -44 21 -48 23 -59 11 -66 -7 -5 -18 -5 -24 0
-5 4 -46 11 -90 14 -173 11 -225 21 -225 42 0 11 -5 14 -16 10 -9 -3 -24 -6
-35 -6 -14 0 -19 -7 -19 -28 0 -41 -27 -58 -108 -65 -72 -7 -72 -7 -72 18 0
14 5 25 10 25 14 0 12 46 -3 58 -7 6 -36 14 -64 18 -60 8 -138 -9 -202 -43
-56 -29 -131 -91 -131 -107 0 -7 19 -16 42 -22 49 -10 65 -40 26 -48 -126 -25
-145 -26 -218 -13 -63 11 -75 16 -75 32 0 15 10 21 43 28 24 5 42 14 42 22 0
34 -125 114 -227 145 -46 14 -147 7 -170 -12 -16 -13 -17 -50 -2 -65 9 -9 8
-18 -5 -37 -28 -43 -52 -50 -103 -31 -48 18 -63 42 -63 98 0 29 -3 32 -30 32
-17 0 -35 -6 -40 -14 -11 -19 -26 -21 -150 -20 -58 1 -124 0 -148 0 -41 -2
-43 -1 -37 21 11 33 34 78 42 78 3 0 11 -6 17 -14 7 -9 25 -12 54 -9 56 7 54
23 -3 23 -25 0 -45 5 -45 10 0 6 5 10 10 10 22 0 8 19 -16 22 -20 2 -30 14
-47 57 -12 30 -33 62 -47 72 -31 21 -70 34 -70 21z m288 -326 c123 -16 221
-53 334 -128 71 -47 170 -163 209 -244 29 -62 38 -127 19 -139 -5 -3 -10 -22
-10 -41 0 -19 -4 -34 -10 -34 -5 0 -10 11 -10 24 0 13 -6 29 -14 35 -11 9 -15
0 -21 -54 -3 -36 -11 -65 -16 -65 -5 0 -9 29 -9 64 0 36 -4 67 -9 71 -11 6
-17 -12 -26 -83 -9 -66 -17 -60 -27 21 -17 123 -20 142 -29 152 -6 5 -9 -22
-8 -68 1 -43 -1 -80 -3 -83 -3 -2 -17 32 -32 76 -34 102 -78 199 -84 182 -2
-7 0 -18 5 -25 5 -7 19 -46 32 -87 12 -41 27 -89 32 -106 12 -40 12 -104 -1
-104 -5 0 -10 7 -10 16 0 8 -9 39 -21 67 -12 29 -25 61 -29 72 -35 91 -121
236 -128 215 -3 -7 0 -15 5 -19 9 -5 80 -149 98 -196 14 -38 35 -126 35 -145
0 -40 -18 -18 -70 88 -29 59 -57 109 -61 110 -5 2 -9 9 -9 16 0 7 -23 41 -52
77 -56 69 -62 76 -93 99 -19 14 -19 14 -5 -5 8 -11 23 -29 33 -40 85 -92 214
-352 189 -377 -7 -7 -16 0 -28 18 -108 176 -227 324 -258 324 -7 0 -8 -3 -1
-8 26 -18 116 -133 152 -192 86 -143 97 -200 19 -98 -67 87 -142 164 -196 201
-39 26 -34 20 33 -49 76 -76 175 -210 164 -220 -3 -3 -45 35 -94 84 -75 77
-118 112 -136 112 -2 0 33 -37 78 -83 67 -68 115 -132 115 -154 0 -3 -27 21
-59 54 -78 76 -99 94 -144 121 -52 30 -60 28 -17 -5 61 -48 132 -117 162 -157
44 -60 35 -75 -17 -30 -61 54 -111 90 -151 112 -47 25 -54 26 -54 12 0 -5 5
-10 11 -10 33 0 209 -156 209 -186 0 -22 -8 -18 -64 34 -29 26 -66 53 -82 61
-16 7 -37 17 -46 22 -23 12 -38 11 -38 -1 0 -5 7 -10 15 -10 39 0 172 -115
163 -140 -2 -6 -21 4 -43 23 -60 50 -181 101 -160 67 3 -5 15 -10 26 -10 10 0
19 -4 19 -10 0 -5 7 -10 15 -10 8 0 15 -5 15 -11 0 -7 -10 -9 -27 -4 -60 16
-141 17 -169 2 l-27 -14 49 -8 c27 -4 69 -14 94 -22 67 -23 106 -63 60 -63
-22 0 -26 -10 -9 -27 6 -6 9 -23 7 -39 -3 -26 -14 -35 -104 -79 -56 -27 -122
-68 -146 -90 -47 -42 -57 -73 -63 -190 -3 -76 -5 -85 -15 -85 -5 0 -10 7 -10
15 0 8 -9 15 -20 15 -16 0 -20 7 -20 33 0 17 -6 50 -14 71 l-14 39 -17 -37
c-21 -45 -35 -54 -35 -25 0 33 -18 11 -22 -26 -5 -48 -22 -32 -34 32 -10 55
-11 56 -19 28 -5 -18 -4 -73 3 -135 15 -129 15 -170 2 -170 -5 0 -10 13 -10
29 0 17 -4 33 -10 36 -5 3 -10 19 -10 36 0 16 -4 29 -10 29 -5 0 -10 -9 -10
-20 0 -25 20 -109 32 -137 6 -11 8 -27 5 -35 -3 -9 -7 -7 -12 7 -4 11 -12 31
-17 45 -6 14 -15 36 -21 50 -5 14 -13 33 -18 42 -5 10 -9 27 -9 37 0 11 -4 23
-10 26 -5 3 -10 22 -10 41 0 19 -4 34 -10 34 -14 0 -13 -67 1 -72 6 -2 9 -17
7 -33 -5 -35 -5 -35 -46 95 -50 160 -54 193 -49 350 7 185 31 318 80 445 8 22
18 52 21 68 17 74 165 275 261 353 91 74 125 92 230 120 74 20 182 41 215 43
14 0 76 -5 138 -13z m660 -146 c29 -27 65 -40 113 -40 22 0 48 -5 58 -12 15
-9 28 -9 59 0 22 7 56 12 76 12 41 0 67 11 97 41 22 22 56 24 94 7 32 -14 31
-21 -3 -50 -63 -54 -162 -196 -162 -233 0 -27 -20 -26 -62 2 -70 47 -99 56
-183 58 -76 2 -80 3 -84 26 -5 39 -25 43 -31 6 -4 -24 -11 -33 -27 -35 -30 -4
-31 24 -1 48 l22 17 -32 17 c-17 9 -38 16 -46 16 -18 0 -26 13 -36 55 -9 39
-5 47 35 68 41 22 87 21 113 -3z m209 -262 c53 -25 120 -89 129 -123 3 -13 -4
-40 -18 -66 -22 -42 -23 -43 -26 -16 -4 29 -11 34 -30 15 -9 -9 -12 -7 -12 11
0 17 -4 22 -16 17 -9 -3 -18 -6 -20 -6 -2 0 -4 -9 -4 -19 0 -11 -4 -23 -10
-26 -6 -4 -10 5 -10 20 0 15 -4 24 -10 20 -5 -3 -10 -14 -10 -24 0 -10 -8 -25
-18 -34 -16 -14 -20 -14 -50 0 -17 8 -32 18 -32 22 0 3 -20 33 -45 66 -25 33
-45 62 -45 66 0 12 56 67 85 82 42 22 87 21 142 -5z m515 -222 c83 -15 113
-31 176 -100 61 -66 75 -106 76 -211 1 -69 -3 -99 -18 -130 -21 -45 -84 -135
-94 -135 -17 0 -41 62 -35 90 3 19 1 30 -6 30 -6 0 -11 -7 -11 -15 0 -27 -20
-15 -21 13 -1 46 -5 72 -12 79 -4 3 -7 -1 -7 -10 0 -22 -4 -21 -34 7 -15 13
-26 33 -26 45 0 12 -4 29 -9 39 -5 9 -15 32 -22 50 -12 34 -79 90 -151 127
-23 12 -34 23 -31 33 3 8 0 18 -7 22 -25 16 1 32 44 26 27 -4 33 -3 16 2 -25
8 -25 8 10 24 69 32 64 31 162 14z m356 -456 c35 -96 36 -107 17 -155 -20 -53
-50 -79 -76 -65 -10 6 -25 7 -33 4 -11 -4 -19 2 -26 20 -5 14 -13 26 -18 26
-5 0 -14 11 -22 24 -11 21 -10 28 7 53 10 15 25 42 32 58 7 17 17 38 22 47 5
10 9 27 9 38 0 18 5 21 33 18 30 -3 34 -8 55 -68z m-2088 -64 c0 -13 -13 -53
-30 -89 -16 -37 -30 -75 -30 -86 0 -33 -17 -33 -44 0 -46 54 -32 145 29 180
45 26 75 24 75 -5z m2274 -27 c19 -9 29 -9 39 -1 44 37 127 -116 127 -236 0
-103 -49 -193 -143 -260 -47 -34 -53 -34 -92 -10 -56 36 -75 50 -73 56 1 4 -3
16 -7 26 -8 18 8 122 20 134 3 3 16 -1 30 -8 18 -10 28 -11 36 -3 19 19 0 48
-48 73 -72 37 -79 55 -39 95 17 17 30 22 47 18 23 -6 23 -6 7 11 -32 32 -18
47 24 25 11 -6 22 -8 26 -5 8 9 -30 35 -51 36 -11 0 -15 5 -11 11 4 7 24 9 51
6 l45 -5 -26 17 c-41 27 -12 42 38 20z m433 -207 c26 -59 23 -268 -5 -351 -29
-83 -94 -213 -135 -265 -46 -60 -135 -151 -141 -145 -3 2 8 19 24 36 17 18 30
35 30 39 0 4 10 18 22 31 12 13 19 25 16 28 -3 3 -38 -26 -77 -66 -73 -74
-108 -93 -46 -25 19 21 35 42 35 46 0 4 9 17 20 30 44 50 17 36 -40 -22 -33
-33 -60 -58 -60 -55 0 7 43 73 69 107 11 13 18 27 15 29 -3 3 -9 -1 -15 -9 -7
-11 -11 -12 -17 -3 -5 8 -21 -1 -50 -29 -24 -22 -45 -38 -48 -35 -6 6 51 85
71 99 5 4 6 10 3 14 -4 3 -26 -13 -48 -36 -22 -23 -44 -39 -48 -35 -4 4 -1 10
6 12 6 3 12 13 12 23 0 10 6 20 12 22 20 7 -16 38 -43 38 -18 0 -19 2 -9 15
10 12 10 18 0 30 -10 12 -10 18 1 32 8 9 13 24 11 34 -3 18 59 72 103 89 32
12 135 92 190 146 48 46 71 95 101 212 6 20 22 5 41 -36z m-2967 11 c0 -86 56
-190 140 -263 51 -44 60 -57 60 -85 0 -46 22 -138 34 -147 7 -5 6 -11 -4 -18
-13 -8 -13 -13 3 -40 16 -26 16 -30 3 -30 -9 0 -16 5 -16 10 0 6 -5 10 -11 10
-9 0 41 -73 61 -90 11 -8 20 -40 12 -40 -13 0 -90 78 -131 134 -23 31 -44 56
-46 56 -6 0 51 -89 73 -115 22 -25 34 -55 23 -55 -10 0 -104 98 -118 125 -7
11 -15 16 -19 12 -5 -5 -2 -12 5 -16 7 -5 11 -16 9 -26 -2 -13 -13 -3 -39 36
-73 109 -119 229 -119 306 0 41 36 238 47 256 11 18 33 5 33 -20z m2429 -418
c39 -34 50 -93 26 -153 -10 -23 -20 -42 -24 -41 -3 0 -19 8 -36 18 -26 16 -30
23 -27 55 3 31 -1 39 -17 43 -24 6 -26 21 -9 60 23 51 43 55 87 18z m841 -94
c49 -47 48 -50 -22 -65 -14 -3 -40 -17 -56 -31 -17 -14 -37 -25 -46 -25 -13 0
-14 -4 -4 -24 17 -39 4 -56 -42 -56 -22 0 -40 -4 -40 -10 0 -5 -9 -10 -19 -10
-17 0 -18 -3 -8 -24 9 -18 15 -22 24 -14 10 8 24 0 55 -28 l43 -39 7 50 c3 28
10 63 14 79 10 43 65 91 119 106 l49 14 38 -45 c21 -24 38 -51 38 -59 0 -8 6
-27 14 -42 18 -34 13 -38 -41 -38 -25 0 -53 -5 -63 -10 -25 -13 -35 4 -14 24
8 9 27 19 42 22 53 11 55 13 42 29 -22 27 -75 19 -104 -16 -39 -46 -60 -100
-47 -121 16 -27 13 -38 -13 -48 -18 -7 -22 -14 -19 -34 3 -14 2 -33 -1 -43 -6
-15 -8 -15 -16 -3 -10 15 -11 13 -14 -25 0 -11 -7 -20 -15 -20 -9 0 -19 22
-27 64 -8 36 -17 68 -22 73 -5 5 -28 11 -51 13 -35 2 -51 11 -89 48 -26 25
-62 59 -81 77 -25 23 -31 34 -23 42 8 8 23 0 55 -29 51 -47 87 -69 87 -53 0 5
-7 10 -15 10 -8 0 -15 6 -15 14 0 7 -7 19 -15 26 -23 19 -20 96 5 117 12 11
16 21 10 28 -13 16 28 75 52 75 22 0 60 18 70 34 4 6 8 24 8 39 l0 28 52 -28
c29 -15 73 -48 98 -72z m-3440 64 c0 -22 34 -65 51 -65 4 0 17 -20 29 -44 11
-24 30 -50 40 -58 12 -8 23 -32 28 -59 8 -39 6 -48 -8 -57 -19 -11 -34 -52
-19 -52 5 0 27 16 49 36 35 32 41 34 47 19 4 -12 -1 -23 -18 -36 -13 -10 -43
-36 -67 -58 -39 -37 -58 -45 -131 -54 -14 -2 -41 -75 -41 -114 0 -50 -38 -35
-41 17 -1 17 -3 20 -6 7 -8 -29 -23 -8 -23 33 0 25 -5 40 -16 44 -11 4 -14 14
-9 34 7 33 -14 87 -51 131 -22 26 -33 31 -70 31 l-45 0 16 29 c8 16 26 38 40
49 22 17 31 18 66 9 74 -18 129 -101 129 -192 0 -40 18 -39 62 4 44 44 58 50
58 26 0 -8 5 -15 10 -15 6 0 10 4 10 9 0 5 3 16 6 25 5 12 0 16 -20 16 -14 0
-26 4 -26 9 0 6 -19 11 -42 13 -43 3 -43 3 -41 41 1 21 -2 37 -8 37 -6 0 -25
11 -41 26 -17 14 -44 28 -59 31 -50 10 -52 26 -11 65 40 38 119 88 140 88 6 0
12 -11 12 -25z m-201 -388 c38 -35 54 -83 41 -122 -10 -31 -33 -50 -49 -41 -3
2 -5 34 -5 70 2 39 -2 69 -9 74 -26 20 -62 21 -102 3 -54 -24 -85 -67 -85
-120 0 -23 -4 -41 -10 -41 -17 0 -11 65 9 113 19 44 57 80 96 90 34 9 89 -4
114 -26z m3853 1 c36 -25 56 -63 58 -113 3 -63 -1 -64 -14 -5 -10 46 -17 58
-51 82 -49 34 -94 44 -117 26 -13 -9 -18 -32 -21 -82 -2 -39 -8 -71 -14 -73
-22 -8 -43 28 -43 72 0 35 6 52 30 79 17 19 41 37 53 39 36 8 89 -3 119 -25z
m-3388 -23 c26 -11 36 -21 34 -33 -3 -14 -13 -16 -48 -14 -79 5 -110 -6 -159
-57 -62 -65 -113 -169 -129 -260 -9 -53 -27 -64 -35 -22 -9 43 59 183 128 265
22 26 42 58 45 69 4 14 15 23 30 26 14 1 36 11 50 22 31 23 38 23 84 4z m-514
-25 c0 -6 -7 -13 -15 -16 -20 -8 -19 -29 2 -49 13 -14 14 -21 5 -36 -17 -27
-15 -39 8 -39 11 0 20 -7 20 -15 0 -8 -9 -15 -19 -15 -24 0 -35 -15 -27 -37 6
-14 11 -12 35 11 39 37 92 45 120 17 23 -23 30 -67 9 -55 -10 5 -10 4 -2 -5
12 -13 -15 -80 -42 -102 -22 -18 -66 -14 -85 9 -15 19 -20 20 -48 9 -17 -6
-31 -18 -31 -27 0 -18 -45 -26 -55 -10 -3 6 -16 10 -28 10 -20 1 -20 2 -5 13
14 11 15 23 8 77 -4 36 -6 67 -4 69 2 2 10 1 19 -2 9 -4 15 -19 15 -39 0 -52
11 -78 31 -78 16 0 18 6 13 48 -8 75 -12 87 -34 112 -16 18 -19 32 -14 59 10
61 11 63 49 55 28 -5 35 -3 35 10 0 9 -5 16 -11 16 -5 0 -7 5 -4 10 8 13 55
13 55 0z m3910 -56 c15 -39 12 -69 -9 -93 -20 -22 -24 -37 -36 -118 -5 -29
-12 -43 -26 -46 -11 -3 -18 -11 -17 -17 2 -7 -3 -15 -9 -17 -8 -3 -13 4 -13
16 0 12 -4 21 -10 21 -5 0 -10 -4 -10 -8 0 -4 -14 -16 -31 -26 -30 -18 -32
-18 -58 1 -38 29 -66 108 -50 144 6 16 20 31 30 34 32 10 77 -5 99 -32 15 -19
24 -23 32 -15 16 16 2 42 -23 42 -12 0 -19 5 -16 13 2 6 10 11 16 9 16 -3 25
25 13 41 -10 13 19 72 31 61 3 -3 14 -1 24 5 30 18 53 12 63 -15z m-1361
-1150 c7 -16 17 -36 21 -45 5 -9 9 -74 11 -145 l3 -130 -30 -44 c-56 -83 -62
-137 -38 -313 4 -31 2 -53 -5 -60 -6 -6 -11 -23 -11 -38 0 -18 -6 -28 -20 -32
-14 -3 -20 -14 -20 -31 0 -14 -4 -26 -10 -26 -5 0 -10 7 -10 16 0 8 -4 12 -10
9 -5 -3 -10 -14 -10 -24 0 -57 -61 -109 -95 -81 -17 14 -18 20 -5 40 8 13 11
12 24 -5 13 -17 15 -17 16 -4 0 23 -25 41 -52 38 -13 -2 -33 2 -44 9 -12 6
-24 9 -26 6 -3 -2 -3 48 -1 113 5 121 16 168 56 233 34 55 47 100 47 170 1 54
5 70 25 93 14 16 30 25 36 21 9 -5 10 1 5 20 -4 17 -1 35 11 52 10 17 16 41
14 65 -1 21 1 44 5 51 4 6 9 38 11 71 2 32 6 64 10 70 8 13 71 -56 92 -99z
m-847 -329 c9 4 18 0 21 -9 4 -9 13 -13 20 -10 9 3 17 -4 21 -18 5 -19 8 -20
15 -8 9 12 11 12 16 -2 4 -11 23 -20 51 -24 24 -3 47 -10 50 -15 7 -12 116
-12 146 0 13 5 47 14 77 21 29 7 65 19 80 26 14 8 34 14 43 14 9 0 19 4 23 10
3 5 12 7 20 3 8 -3 15 0 15 6 0 6 5 11 10 11 18 0 11 -76 -9 -102 -52 -65
-101 -213 -101 -302 0 -52 -19 -102 -56 -145 -33 -40 -48 -40 -40 -1 3 18 1
30 -5 30 -6 0 -8 8 -4 19 3 11 -3 28 -14 42 l-20 24 -1 -24 c0 -32 -27 -61
-57 -61 -18 0 -24 5 -21 18 2 10 11 16 21 14 14 -2 16 2 11 22 -4 16 -2 26 5
26 19 0 12 66 -10 94 -18 23 -27 26 -84 26 -58 0 -67 -3 -98 -32 -23 -22 -34
-41 -32 -57 2 -27 25 -42 25 -17 0 9 10 32 23 51 19 31 27 35 64 35 23 0 44
-4 48 -9 3 -6 -9 -26 -27 -47 -26 -29 -32 -44 -30 -73 5 -56 34 -75 106 -67
l58 6 -7 -38 c-19 -109 -18 -135 11 -177 18 -27 27 -54 28 -85 1 -36 5 -45 21
-49 11 -2 31 -11 45 -21 39 -26 72 -32 85 -13 7 9 17 13 23 9 16 -10 15 -43
-1 -53 -7 -4 -17 -21 -22 -38 -19 -56 -115 -77 -160 -35 -61 58 -325 56 -394
-3 -25 -21 -38 -25 -64 -20 -54 10 -81 27 -92 58 -5 17 -15 34 -22 38 -16 10
-17 43 -2 53 6 3 16 1 22 -5 17 -17 56 -13 85 8 15 10 36 20 47 23 17 3 20 11
19 48 -1 24 -6 46 -13 48 -17 6 -13 33 9 70 15 24 20 50 20 97 0 71 11 82 35
36 8 -17 30 -41 48 -55 28 -21 45 -26 95 -26 49 0 62 3 62 15 0 9 -10 19 -22
24 -29 11 -141 128 -134 140 3 4 1 23 -4 42 -6 19 -12 63 -14 99 -4 64 -24
118 -81 215 -13 23 -24 57 -24 81 -1 42 8 62 19 44 4 -6 14 -8 22 -5z m1153
-277 c24 -28 39 -55 42 -80 5 -33 3 -38 -21 -44 -16 -4 -32 -1 -41 6 -13 11
-20 9 -38 -7 -22 -20 -79 -53 -93 -53 -3 0 -4 28 -2 63 4 48 1 65 -11 74 -14
10 -13 14 9 32 14 12 33 19 42 17 9 -2 25 5 34 15 25 27 36 24 79 -23z m-640
-332 l26 -54 39 5 c43 6 47 1 25 -37 -7 -14 -11 -37 -8 -52 6 -31 -15 -39 -36
-14 -9 10 -28 12 -76 8 l-65 -5 -1 34 c-3 77 6 105 44 147 11 12 22 22 23 22
2 0 15 -24 29 -54z m-573 -203 c29 -26 23 -44 -16 -41 -19 1 -40 -3 -48 -9 -9
-8 -19 -9 -28 -3 -62 39 -103 -37 -66 -123 21 -50 59 -79 117 -88 81 -13 89
-33 10 -25 -78 9 -112 25 -145 69 -54 70 -41 173 27 216 40 26 122 28 149 4z
m661 -18 c57 -55 61 -135 10 -203 -32 -43 -70 -61 -143 -69 -77 -8 -82 12 -5
22 90 11 145 73 145 163 0 51 -18 66 -69 57 -22 -4 -46 -3 -53 1 -7 5 -25 7
-40 5 -32 -3 -36 13 -11 41 12 13 31 18 73 18 52 0 60 -3 93 -35z"/>
<path d="M2688 6201 c7 -20 77 -76 125 -100 15 -8 50 -34 78 -58 64 -54 79
-55 79 -4 0 35 -6 44 -47 80 -45 38 -70 45 -59 15 7 -19 -4 -17 -34 6 -14 11
-32 20 -41 20 -9 0 -28 9 -42 20 -14 11 -30 20 -36 20 -6 0 -11 5 -11 10 0 6
-4 10 -10 10 -5 0 -6 -9 -2 -19z"/>
<path d="M3270 6190 c0 -5 -9 -10 -20 -10 -11 0 -20 -4 -20 -9 0 -7 -25 -19
-52 -25 -3 0 -10 -4 -14 -8 -4 -5 -16 -8 -27 -8 -14 0 -17 5 -13 16 6 15 4 15
-11 3 -64 -47 -83 -74 -83 -111 0 -50 24 -51 69 -4 19 19 47 40 62 47 16 6 29
15 29 20 0 5 5 9 11 9 18 0 109 72 103 82 -7 11 -34 10 -34 -2z"/>
<path d="M760 4501 c0 -5 6 -16 14 -23 23 -23 29 -59 15 -84 -11 -21 -10 -26
6 -38 16 -12 15 -12 -14 -8 -32 4 -32 4 -29 -29 2 -27 -2 -36 -20 -46 -35 -19
-74 -6 -100 33 -23 35 -42 44 -42 21 0 -26 32 -56 85 -81 53 -24 66 -38 45
-51 -5 -3 -10 -10 -10 -16 0 -5 5 -9 10 -9 6 0 10 7 10 15 0 8 7 15 15 15 8 0
15 -3 15 -8 0 -6 72 -42 85 -42 9 0 5 49 -4 54 -5 3 -12 -4 -16 -17 l-8 -22
-4 23 c-3 16 -11 22 -30 22 -39 0 -23 19 47 53 54 27 66 38 74 65 6 22 6 36
-1 40 -5 4 -13 16 -17 26 -5 15 -10 16 -18 8 -16 -16 -38 4 -38 35 0 17 -7 27
-20 30 -15 4 -19 11 -15 24 5 14 1 19 -14 19 -12 0 -21 -4 -21 -9z"/>
<path d="M3540 3564 c-36 -7 -80 -13 -97 -14 -69 -1 -173 -95 -173 -157 0 -10
-7 -29 -16 -41 -19 -28 -12 -52 16 -52 11 0 23 -7 26 -15 4 -8 12 -15 20 -15
8 0 14 -4 14 -10 0 -20 65 -82 111 -106 101 -51 187 -21 267 93 12 17 22 40
22 51 0 12 5 24 10 27 6 3 10 21 10 40 0 19 5 37 10 40 6 3 10 19 10 36 0 52
40 30 44 -25 3 -37 11 -54 21 -44 8 7 -21 168 -32 177 -8 8 -157 32 -183 30
-8 -1 -44 -7 -80 -15z m211 -50 c16 -14 16 -18 0 -59 -9 -24 -20 -47 -24 -51
-4 -4 -7 -18 -7 -31 0 -13 -6 -34 -14 -46 -8 -12 -25 -42 -39 -67 -17 -31 -40
-53 -73 -72 -66 -36 -89 -36 -103 3 -16 46 7 93 53 109 40 13 50 27 60 85 10
56 28 107 45 128 18 21 78 23 102 1z"/>
<path d="M492 3488 l3 -63 63 -30 c59 -28 78 -45 49 -45 -19 0 -91 -36 -104
-52 -14 -16 -20 -123 -8 -122 24 1 65 17 65 25 0 5 -11 9 -25 9 -19 0 -25 5
-25 22 0 23 46 78 65 78 26 0 75 32 75 50 0 18 -59 60 -84 60 -20 0 -56 44
-56 68 0 17 6 22 25 22 14 0 25 3 25 8 0 7 -48 32 -62 32 -5 0 -8 -28 -6 -62z"/>
<path d="M5465 3531 l-30 -16 33 -3 c26 -3 32 -8 32 -27 0 -22 -39 -53 -125
-101 -32 -18 -23 -36 33 -65 69 -36 92 -57 92 -85 0 -17 -7 -24 -27 -26 l-28
-4 37 -19 c40 -20 59 -15 38 10 -8 10 -9 15 -1 15 17 0 13 42 -8 76 -12 19
-37 38 -65 50 -25 10 -46 22 -46 27 0 4 24 18 53 31 62 27 80 58 71 117 -7 43
-14 45 -59 20z"/>
<path d="M4409 3445 c-21 -36 -37 -43 -55 -25 -17 17 -64 -26 -64 -59 0 -29
-41 -77 -58 -67 -5 3 -24 -10 -42 -29 -39 -40 -80 -47 -80 -15 0 52 -43 -9
-44 -62 -2 -74 -42 -23 -55 70 -10 68 -26 44 -26 -39 0 -71 2 -78 35 -122 19
-25 40 -47 46 -47 7 0 19 11 28 25 9 13 29 31 45 39 23 12 27 20 24 41 -7 32
21 75 48 75 33 0 75 36 92 78 20 50 34 60 82 58 46 -2 64 5 100 39 18 16 25
31 22 47 l-4 23 -8 -22 c-5 -17 -15 -23 -36 -23 -29 0 -38 13 -19 25 13 8 13
25 0 25 -6 0 -20 -16 -31 -35z"/>
<path d="M2920 3375 c0 -30 -5 -31 -65 -5 -61 26 -91 25 -158 -5 -32 -15 -88
-29 -130 -34 -77 -9 -125 -29 -145 -62 -10 -15 -9 -19 2 -19 8 0 19 -8 25 -17
9 -17 10 -17 16 0 4 9 16 17 27 17 11 0 28 5 39 11 26 13 55 4 42 -14 -6 -6
-9 -32 -8 -57 2 -35 7 -46 21 -49 11 -1 27 -10 36 -18 9 -8 21 -12 27 -9 6 4
20 2 32 -4 17 -10 25 -8 43 9 28 26 44 26 75 0 19 -16 22 -22 12 -29 -8 -4
-10 -13 -7 -19 4 -6 -4 -22 -17 -35 -14 -14 -22 -27 -19 -30 10 -10 -67 -36
-108 -36 -71 0 -120 30 -193 119 -15 18 -31 31 -34 27 -11 -11 28 -74 73 -118
58 -56 95 -70 175 -66 89 5 154 38 195 101 17 26 50 65 73 86 28 26 41 46 41
65 0 15 9 44 20 66 l20 39 -31 46 c-27 39 -55 65 -73 65 -3 0 -6 -11 -6 -25z"/>
<path d="M3234 3215 c-3 -8 -3 -18 0 -23 3 -5 11 -40 19 -78 8 -38 26 -90 40
-117 23 -42 27 -45 36 -30 11 17 11 17 22 0 6 -10 21 -17 37 -16 15 1 35 -2
45 -6 30 -13 20 23 -22 73 -21 26 -62 81 -90 123 -51 78 -77 100 -87 74z"/>
<path d="M3087 2902 c-24 -26 -22 -79 3 -92 11 -6 20 -17 20 -25 0 -8 12 -27
26 -42 l25 -28 -4 35 c-5 41 14 90 42 107 19 12 21 10 26 -25 13 -77 17 -92
26 -98 17 -10 94 40 111 74 16 32 15 35 -4 68 -18 31 -24 34 -69 34 -36 0 -51
-4 -56 -15 -5 -14 -7 -14 -24 1 -12 11 -27 14 -47 9 -18 -3 -33 -2 -37 4 -9
16 -20 14 -38 -7z"/>
<path d="M2563 2811 c-3 -12 -9 -22 -14 -22 -5 -1 -14 -2 -21 -3 -6 0 -13 -6
-15 -13 -3 -7 3 -9 16 -6 13 3 33 -8 65 -38 25 -24 46 -49 46 -55 0 -6 7 -25
15 -40 8 -16 15 -40 15 -54 0 -15 4 -30 8 -35 5 -6 19 -43 32 -83 23 -73 41
-95 62 -74 8 8 6 15 -6 27 -9 9 -16 25 -16 35 0 10 -4 22 -10 25 -5 3 -10 17
-10 30 0 13 5 27 10 30 17 10 11 32 -10 38 -24 6 -27 42 -4 55 15 8 14 13 -10
44 -14 19 -26 42 -26 52 0 9 -10 20 -21 25 -12 4 -27 22 -33 42 -9 27 -17 35
-39 37 -22 3 -30 -1 -34 -17z"/>
<path d="M5230 2576 c0 -14 -4 -28 -10 -31 -17 -10 -11 -25 10 -25 29 0 24
-24 -7 -40 -81 -38 -95 -47 -109 -68 -13 -20 -14 -29 -4 -53 7 -16 10 -36 6
-45 -3 -8 0 -22 8 -30 13 -12 16 -11 21 7 4 12 13 19 23 17 13 -3 16 -13 14
-38 -3 -33 -2 -34 12 -15 15 19 15 19 16 -12 0 -25 4 -33 18 -33 30 0 32 11 6
38 -24 27 -32 76 -14 87 6 4 1 15 -12 26 l-23 20 39 -6 38 -6 -4 31 c-4 23 0
33 11 38 9 3 27 14 40 24 l25 19 -22 6 c-13 3 -22 13 -22 24 0 12 -7 19 -20
19 -16 0 -20 7 -20 35 0 19 -4 35 -10 35 -5 0 -10 -11 -10 -24z"/>
<path d="M3228 2538 c-2 -17 -11 -24 -30 -26 -32 -4 -38 -22 -8 -22 24 0 40
-28 40 -69 0 -34 -22 -51 -64 -51 -23 0 -26 -4 -26 -33 0 -27 5 -35 29 -43 27
-11 30 -9 60 37 29 44 61 65 61 39 0 -5 5 -10 10 -10 6 0 10 9 10 20 0 19 32
44 43 33 15 -14 25 46 15 80 -10 33 -14 36 -62 42 -28 4 -56 11 -63 17 -8 6
-12 2 -15 -14z"/>
<path d="M739 2522 c-13 -16 -44 -36 -68 -45 -47 -19 -80 -52 -81 -79 0 -30
17 -20 47 25 30 44 68 60 79 33 3 -9 12 -16 19 -16 8 0 15 -14 17 -32 3 -33 4
-33 53 -31 28 1 39 -1 25 -4 -41 -8 -51 -21 -38 -49 10 -21 8 -32 -7 -60 -10
-19 -22 -34 -27 -34 -4 0 -8 -4 -8 -10 0 -5 12 -10 26 -10 20 0 25 4 20 16 -4
11 1 22 14 31 11 8 20 23 20 34 0 12 5 19 13 16 6 -2 11 -14 9 -25 -2 -12 2
-22 7 -22 6 0 11 7 11 15 0 8 7 15 16 15 11 0 14 6 9 21 -4 12 -2 32 5 44 10
18 9 28 -1 51 -12 24 -40 43 -134 88 -6 3 -2 11 8 19 14 12 15 16 4 25 -10 9
-19 5 -38 -16z"/>
<path d="M4823 2101 c-10 -10 -25 -22 -34 -27 -9 -5 -33 -24 -54 -42 -34 -31
-36 -34 -21 -51 9 -10 16 -25 16 -34 0 -9 5 -19 10 -22 12 -7 14 -115 2 -115
-5 0 -17 -9 -29 -19 -27 -25 -125 -46 -152 -32 -25 14 -64 14 -77 1 -5 -5 -26
-11 -47 -12 -34 -3 -54 -18 -23 -18 19 0 49 -87 62 -175 8 -63 20 -86 39 -79
20 8 45 -13 45 -37 0 -28 14 -23 27 10 13 36 9 41 -34 41 -30 0 -33 2 -23 19
13 26 13 138 -1 146 -7 5 -9 -3 -6 -23 4 -23 2 -29 -9 -25 -17 6 -29 42 -17
54 5 5 37 12 71 15 50 4 62 3 62 -9 0 -8 7 -17 15 -21 9 -3 15 -18 15 -40 0
-25 5 -35 19 -39 23 -6 31 10 31 58 0 37 17 56 31 34 5 -8 9 -28 9 -45 0 -16
6 -39 14 -50 14 -18 15 -18 25 9 6 16 11 36 10 45 0 14 -2 13 -8 -2 -7 -19 -8
-19 -14 3 -3 13 -1 34 5 47 9 18 8 28 0 36 -9 9 -12 7 -12 -10 0 -12 -4 -22
-10 -22 -5 0 -10 14 -10 30 0 30 -21 42 -35 20 -8 -12 -82 -13 -89 -1 -8 13
22 22 50 15 16 -4 26 -1 30 9 4 11 15 14 38 10 22 -3 36 0 45 11 11 14 11 16
-3 16 -10 0 -16 9 -16 25 -1 14 -1 64 -1 112 l-1 87 46 47 c44 46 57 69 36 69
-5 0 -17 -8 -27 -19z"/>
<path d="M4135 1868 c4 -24 14 -48 23 -54 24 -18 7 -44 -29 -44 -22 0 -32 5
-36 20 -11 40 -23 19 -23 -40 0 -41 -6 -70 -20 -95 -11 -20 -20 -45 -20 -56 0
-16 4 -19 20 -14 14 5 20 2 20 -9 0 -29 18 -17 37 24 10 22 23 40 28 40 47 0
51 -88 9 -175 -15 -30 -50 -78 -78 -105 -28 -28 -45 -50 -39 -50 7 0 15 5 18
10 3 6 17 10 31 10 50 0 22 -84 -48 -142 -36 -29 -32 -49 6 -29 47 26 53 -13
9 -57 -18 -18 -17 -32 3 -32 9 0 18 -9 21 -20 6 -24 10 -25 29 -6 18 19 18 26
-1 26 -33 0 -4 46 42 65 46 19 51 14 19 -20 -46 -49 -28 -62 24 -18 24 20 31
32 27 51 -5 25 29 68 71 91 17 9 19 8 15 -9 -3 -11 -16 -29 -29 -39 -13 -10
-24 -24 -24 -30 0 -6 -6 -11 -12 -12 -7 0 -4 -4 7 -9 14 -5 29 -1 52 16 17 13
38 24 45 24 36 0 78 70 64 106 -7 19 22 104 35 104 18 0 9 39 -10 45 -13 4
-22 20 -28 53 -5 26 -14 46 -21 45 -6 -2 -14 14 -17 35 -4 20 -9 46 -13 57 -5
18 -6 18 -12 -5 -3 -14 -14 -26 -23 -28 -15 -3 -17 1 -11 23 5 19 1 30 -12 40
-17 13 -17 14 -2 15 9 0 20 -4 23 -10 3 -5 11 -10 17 -10 10 0 7 35 -6 70 -6
16 39 44 55 34 5 -3 9 4 9 14 0 16 -7 20 -35 20 -20 0 -46 7 -60 16 -35 23
-46 20 -39 -9 4 -17 1 -27 -9 -31 -21 -8 -57 13 -57 34 0 26 -33 112 -43 112
-5 0 -6 -19 -2 -42z"/>
<path d="M1266 1872 c-2 -4 -1 -14 4 -22 5 -8 7 -24 4 -36 -4 -15 1 -26 15
-36 14 -10 19 -21 15 -32 -7 -17 11 -23 21 -6 9 15 52 12 58 -4 6 -16 -20 -26
-69 -26 -36 0 -57 20 -48 44 3 9 1 16 -5 16 -6 0 -11 9 -11 20 0 26 -12 26
-28 0 -14 -23 -8 -40 14 -40 10 0 14 -12 14 -40 0 -22 -4 -40 -10 -40 -5 0
-10 9 -10 20 0 11 -4 20 -10 20 -13 0 -13 -23 1 -54 7 -14 8 -33 4 -43 -7 -17
-8 -17 -15 2 -13 30 -13 -7 0 -39 15 -41 28 -31 42 34 14 69 31 73 38 10 4
-33 10 -45 28 -51 20 -8 22 -5 22 24 0 18 6 45 13 60 10 23 18 27 58 27 l45 0
2 -76 c2 -42 7 -84 12 -94 9 -17 5 -19 -28 -22 l-39 -3 12 -35 12 -35 14 30
c9 19 23 31 39 34 32 4 37 12 45 80 7 57 26 126 47 164 18 34 -10 44 -109 40
-86 -5 -89 -4 -130 26 -34 25 -43 37 -43 61 0 28 -13 40 -24 22z"/>
<path d="M1827 1002 c-26 -12 -35 -21 -31 -32 4 -8 7 -24 8 -35 1 -16 -5 -20
-35 -20 -21 0 -43 -7 -53 -18 -14 -13 -26 -16 -50 -11 -30 6 -31 6 -13 -13 9
-11 15 -22 13 -24 -10 -12 -16 -79 -6 -79 5 0 10 13 10 28 0 29 25 59 68 82
19 9 30 9 53 0 25 -11 32 -10 48 4 21 19 35 9 20 -14 -18 -30 -11 -43 22 -36
38 7 68 -23 69 -71 0 -25 -8 -38 -36 -60 -71 -56 -78 -63 -62 -63 51 0 109 46
112 89 3 35 27 61 56 61 38 0 38 11 1 28 -17 8 -36 28 -46 50 -40 87 -58 118
-78 134 -26 21 -23 21 -70 0z"/>
<path d="M4094 995 c-12 -8 -32 -40 -44 -72 -13 -32 -29 -65 -36 -73 -12 -12
-16 -12 -28 5 -12 17 -17 18 -28 7 -11 -11 -10 -15 5 -23 23 -13 22 -24 -5
-37 -21 -10 -20 -11 15 -11 31 -1 39 -5 48 -28 6 -16 10 -30 11 -33 0 -19 37
-62 63 -74 39 -18 105 -27 105 -15 0 5 -12 9 -26 9 -16 0 -45 16 -75 41 -40
33 -49 47 -49 73 0 40 42 85 63 68 7 -6 18 -7 26 -3 10 6 10 20 2 66 -13 70
-13 65 -2 65 5 0 11 -18 15 -39 7 -48 19 -56 56 -41 22 9 34 9 52 0 43 -23 68
-53 68 -82 0 -15 5 -28 10 -28 13 0 13 19 -2 60 -9 26 -9 35 0 38 25 8 10 22
-23 22 -24 0 -35 5 -35 14 0 11 -11 14 -42 13 -37 -2 -43 1 -42 18 1 11 4 27
8 35 4 10 -3 19 -21 28 -36 16 -64 15 -89 -3z"/>
<path d="M2904 872 c-23 -20 -80 -62 -128 -92 -76 -48 -106 -80 -76 -80 9 0
57 25 103 54 12 8 33 17 47 21 22 7 23 6 11 -9 -8 -9 -11 -19 -8 -23 8 -7 40
14 85 55 28 25 33 36 30 68 -2 20 -7 39 -13 41 -5 1 -29 -14 -51 -35z"/>
<path d="M3037 903 c-4 -3 -7 -22 -6 -42 0 -30 8 -42 47 -75 38 -31 48 -36 50
-23 2 10 5 17 7 17 8 0 83 -38 114 -57 19 -12 38 -20 43 -17 5 3 16 0 25 -8
15 -12 15 -11 3 8 -7 11 -51 45 -97 75 -47 30 -105 71 -130 92 -49 41 -47 40
-56 30z"/>
<path d="M2985 712 c-6 -4 -19 -27 -30 -52 -11 -25 -30 -60 -44 -78 -20 -27
-30 -32 -55 -30 -28 3 -31 6 -28 36 1 17 -1 32 -6 32 -8 0 -35 -58 -46 -100
-6 -22 -5 -23 6 -9 10 13 25 15 63 12 65 -6 96 17 127 97 12 33 25 60 28 60 3
0 15 -26 28 -59 12 -32 30 -65 40 -73 28 -24 74 -36 101 -26 14 5 31 6 39 3
10 -4 12 1 7 18 -22 74 -51 106 -39 42 6 -35 6 -35 -29 -35 -28 0 -39 6 -60
38 -14 20 -34 55 -44 77 -17 37 -31 55 -43 55 -3 0 -10 -4 -15 -8z"/>
</g>
</svg>
