<?xml version="1.0" standalone="no"?>
<!DOCTYPE svg PUBLIC "-//W3C//DTD SVG 20010904//EN"
 "http://www.w3.org/TR/2001/REC-SVG-20010904/DTD/svg10.dtd">
<svg version="1.0" xmlns="http://www.w3.org/2000/svg"
 width="856.000000pt" height="697.000000pt" viewBox="0 0 856.000000 697.000000"
 preserveAspectRatio="xMidYMid meet">
<metadata>
Created by potrace 1.16, written by Peter Selinger 2001-2019
</metadata>
<g transform="translate(0.000000,697.000000) scale(0.100000,-0.100000)"
fill="#000000" stroke="none">
<path d="M4105 6331 c-82 -21 -122 -63 -151 -162 -14 -47 -14 -65 -3 -149 7
-52 13 -144 13 -205 0 -128 -8 -151 -85 -230 -26 -27 -60 -76 -75 -108 -23
-51 -26 -68 -23 -140 3 -67 8 -88 28 -115 22 -31 22 -36 11 -78 -17 -60 -8
-152 25 -249 23 -67 27 -92 23 -156 -4 -68 -10 -87 -66 -199 -60 -119 -62
-126 -62 -199 0 -85 27 -157 73 -200 15 -13 24 -28 21 -32 -3 -5 -8 -37 -12
-72 l-7 -62 -65 -3 c-42 -2 -84 3 -120 15 -81 26 -165 23 -218 -7 -84 -47
-132 -161 -114 -272 l8 -54 -60 0 c-50 1 -70 -4 -109 -27 -52 -31 -102 -92
-112 -136 -4 -19 -20 -38 -49 -56 -24 -15 -54 -46 -67 -69 -22 -38 -24 -52
-25 -216 -1 -153 -4 -184 -23 -245 -31 -96 -74 -168 -146 -245 -91 -97 -170
-201 -183 -239 -31 -90 -4 -212 58 -264 24 -21 28 -32 31 -93 8 -135 85 -243
228 -322 101 -55 205 -153 273 -257 282 -434 286 -440 297 -502 15 -76 37
-121 76 -159 34 -32 36 -36 39 -112 2 -66 7 -87 31 -128 36 -62 49 -75 107
-108 59 -34 144 -44 227 -26 54 11 65 10 127 -11 51 -16 88 -22 142 -20 127 4
136 4 180 -10 50 -16 99 -6 202 42 62 28 67 29 95 15 38 -20 78 -20 143 -1 47
14 57 14 114 -1 127 -33 232 -3 290 82 56 84 62 174 16 262 l-25 48 45 54 c24
30 48 65 53 78 12 30 11 133 0 151 -7 10 -2 30 15 63 15 30 30 87 40 155 19
134 43 187 127 285 36 43 80 98 96 122 17 24 48 55 68 67 102 63 142 128 128
208 -5 30 0 48 20 87 24 44 26 57 22 124 -3 59 -11 89 -36 140 -115 232 -126
372 -55 710 55 263 51 447 -11 585 -8 17 -19 49 -25 72 -6 26 -22 52 -42 68
-17 14 -44 44 -60 66 -62 86 -155 119 -339 119 -104 0 -120 3 -168 26 -60 30
-109 90 -164 199 -44 88 -71 113 -129 121 -60 8 -109 -15 -151 -73 l-32 -45
-7 43 c-3 24 -16 67 -28 94 -65 148 -110 319 -110 415 0 27 10 88 22 137 12
51 22 125 23 178 1 50 7 104 14 120 14 32 10 87 -14 235 -8 47 -23 144 -34
215 -66 432 -72 460 -101 521 -48 99 -155 157 -245 135z m85 -221 c24 -13 35
-50 56 -185 26 -172 28 -215 14 -215 -7 0 -19 8 -26 17 -16 23 -29 11 -15 -15
6 -11 17 -62 26 -113 10 -61 27 -118 51 -170 27 -58 37 -91 36 -126 -1 -69
-12 -133 -24 -133 -6 0 -29 16 -51 36 -48 43 -77 42 -154 -5 -62 -38 -70 -38
-71 -2 -1 39 -17 68 -42 76 -21 7 -50 53 -50 78 0 8 12 27 27 43 69 73 93 109
123 186 39 101 49 221 31 403 -9 95 -9 120 1 127 18 11 46 10 68 -2z m94 -990
c57 -26 81 -66 73 -123 -3 -22 -12 -46 -20 -54 -13 -13 -15 -10 -21 21 -6 34
-37 66 -62 66 -8 0 -5 -13 8 -37 16 -32 18 -51 13 -123 -4 -61 -2 -99 9 -135
21 -72 33 -120 52 -205 9 -41 38 -133 65 -205 l50 -130 -22 -17 c-15 -13 -39
-18 -83 -18 -84 0 -150 34 -218 111 -28 33 -53 57 -55 55 -2 -2 8 -29 22 -61
32 -74 32 -88 -6 -119 -40 -34 -87 -34 -139 -1 -54 34 -74 75 -67 139 4 43 10
55 38 76 86 65 131 133 145 221 8 51 -6 49 -31 -3 -24 -51 -50 -65 -38 -21 4
15 8 78 8 138 0 94 -4 121 -28 187 -35 98 -35 137 0 179 60 71 213 100 307 59z
m508 -1042 c55 -105 142 -199 216 -234 52 -25 71 -28 212 -34 166 -6 202 -16
233 -63 32 -50 31 -73 -5 -111 -25 -27 -48 -40 -93 -51 -35 -9 -67 -24 -77
-36 -32 -38 -18 -89 24 -89 10 0 18 -4 18 -9 0 -23 -123 -29 -173 -7 -47 20
-79 59 -136 168 -29 53 -57 101 -64 106 -7 5 -52 23 -102 40 -101 35 -130 60
-158 139 -29 83 -19 149 36 230 12 18 23 33 24 33 1 0 21 -37 45 -82z m-364
-10 c22 -22 13 -77 -28 -157 -52 -104 -79 -211 -86 -346 -8 -131 11 -463 32
-592 9 -51 14 -97 12 -103 -1 -5 -30 38 -63 96 -58 103 -80 132 -91 122 -2 -3
4 -30 14 -59 11 -30 29 -90 41 -134 29 -105 76 -176 134 -204 25 -12 47 -27
50 -34 3 -7 12 -28 21 -49 15 -34 14 -37 -5 -62 -26 -33 -71 -34 -152 -6 -99
35 -172 24 -226 -34 -28 -30 -57 -33 -83 -9 -24 22 -23 65 7 187 64 264 87
428 88 631 0 196 -28 346 -95 505 -21 51 -32 92 -32 128 -1 47 3 57 27 78 32
27 59 31 77 9 24 -29 111 -19 235 29 48 18 107 20 123 4z m-817 -278 c46 -15
85 -20 148 -18 104 2 120 -2 149 -45 43 -64 30 -112 -76 -292 -86 -143 -109
-271 -92 -494 6 -80 13 -155 16 -166 3 -11 13 -78 23 -150 15 -109 16 -135 6
-161 -27 -66 -112 -63 -223 7 -63 40 -118 40 -161 0 -40 -37 -40 -51 2 -45 17
3 45 1 61 -5 25 -10 27 -13 15 -28 -91 -110 -242 -93 -256 28 -4 34 0 59 16
95 27 60 45 81 96 106 58 30 149 126 183 194 32 63 46 110 56 184 6 45 6 45
-29 -28 -30 -62 -121 -179 -132 -169 -2 2 12 38 31 80 74 161 109 357 87 492
-6 39 -29 116 -51 172 -43 110 -50 165 -25 213 28 55 59 61 156 30z m1039 -80
c37 -15 74 -20 138 -20 l88 0 38 -39 c38 -39 38 -40 31 -98 -4 -32 -13 -85
-21 -118 -7 -33 -14 -75 -14 -92 0 -34 -14 -44 -23 -19 -3 8 -39 40 -79 72
-40 32 -81 68 -90 79 -16 19 -17 19 -11 -20 7 -50 42 -129 85 -192 87 -127
125 -203 152 -306 14 -53 52 -155 85 -225 65 -142 76 -178 66 -228 l-6 -35
-57 3 c-56 3 -57 3 -63 38 -6 39 -31 91 -51 107 -11 9 -12 1 -10 -42 5 -73
-22 -163 -51 -174 -31 -12 -126 3 -173 27 -81 41 -83 99 -9 255 114 240 101
333 -86 619 -45 67 -89 134 -99 148 -55 80 -77 153 -60 204 23 72 119 96 220
56z m926 -177 c11 -58 -4 -258 -29 -380 -21 -102 -37 -151 -37 -110 0 9 -5 19
-11 23 -8 5 -10 -53 -6 -217 6 -274 16 -318 114 -528 50 -109 39 -132 -74
-147 l-48 -6 -18 40 c-10 22 -30 56 -45 75 -15 19 -32 43 -39 53 -10 17 -12
14 -12 -22 -1 -23 4 -55 10 -73 6 -18 10 -34 8 -36 -2 -1 -38 -6 -81 -10 -75
-7 -76 -7 -94 19 -21 33 -10 76 40 163 47 81 62 138 76 291 15 158 8 265 -25
399 -30 118 -32 218 -7 250 9 13 39 38 66 55 34 23 62 53 88 96 64 107 112
132 124 65z m-2257 -99 c27 -14 74 -28 104 -31 51 -5 55 -8 61 -36 8 -42 7
-135 -1 -140 -14 -9 -233 32 -266 49 -42 22 -47 30 -47 87 0 39 5 52 26 72 34
32 62 31 123 -1z m-157 -184 c54 -31 118 -51 202 -60 44 -5 83 -13 88 -18 13
-13 -51 -170 -85 -209 -16 -19 -65 -59 -109 -90 -43 -31 -78 -60 -78 -64 0 -9
38 1 94 25 22 9 41 14 43 12 2 -2 -25 -62 -60 -132 -35 -71 -75 -159 -87 -196
-24 -72 -25 -63 11 -219 7 -31 10 -63 6 -72 -8 -21 -43 -22 -90 -2 -40 16
-129 19 -192 6 -22 -5 -66 -15 -97 -21 -56 -12 -59 -12 -98 15 -32 22 -40 34
-40 58 0 42 45 104 84 117 18 6 51 24 74 41 44 32 197 208 188 216 -2 3 -28
-13 -58 -35 -58 -45 -72 -46 -42 -4 42 57 89 174 121 302 11 42 17 113 18 200
1 74 3 138 4 143 2 15 71 7 103 -13z m983 -864 c93 -34 146 -33 240 5 79 31
108 31 125 0 11 -21 3 -50 -32 -131 -14 -30 -28 -70 -32 -89 -3 -18 -26 -61
-51 -95 -48 -64 -101 -163 -93 -172 3 -2 32 28 64 67 l59 72 7 -104 c12 -174
54 -353 124 -531 38 -98 43 -147 17 -170 -28 -24 -59 -27 -121 -12 -31 7 -78
13 -105 14 -55 0 -132 33 -149 64 -8 14 -11 53 -8 111 7 137 2 354 -10 408
-15 70 -69 205 -103 255 -69 103 -104 235 -83 317 6 24 10 27 44 22 20 -2 69
-16 107 -31z m618 -57 c26 -12 63 -76 73 -128 4 -17 10 -33 14 -36 12 -8 33
72 27 104 -6 30 -6 31 34 31 46 0 84 -30 95 -76 9 -34 -17 -112 -56 -169 -37
-54 -72 -126 -101 -205 -20 -57 -23 -84 -23 -215 -1 -127 3 -164 23 -243 19
-73 22 -101 15 -130 -9 -36 -11 -37 -48 -34 -22 2 -61 -2 -88 -8 -90 -22 -96
7 -66 312 23 239 29 527 14 685 -7 71 -6 96 4 108 15 18 49 19 83 4z m-1063
-36 c38 -31 70 -100 70 -148 0 -29 -23 -104 -55 -177 -10 -25 19 -24 55 2 l28
20 13 -33 c19 -48 70 -125 147 -224 38 -48 81 -108 95 -133 37 -64 74 -184 82
-263 6 -57 5 -71 -10 -87 -23 -26 -65 -25 -118 1 -87 44 -103 62 -122 141 -10
40 -22 80 -26 88 -5 8 -19 42 -33 75 -78 192 -237 389 -418 518 -96 69 -114
103 -82 152 22 34 78 48 144 35 76 -14 90 -13 90 10 0 23 43 49 82 50 15 0 41
-12 58 -27z m-470 -193 c23 -23 27 -41 33 -133 3 -40 11 -75 20 -85 8 -9 20
-34 26 -54 15 -45 58 -106 127 -178 28 -30 74 -82 102 -115 27 -33 83 -91 123
-129 41 -38 100 -94 132 -124 32 -30 56 -59 54 -65 -3 -9 -57 -46 -94 -63 -19
-9 -33 -71 -33 -146 0 -75 -10 -85 -75 -72 -42 8 -49 18 -70 110 -9 41 -31 93
-54 129 -86 137 -131 207 -227 352 -56 84 -96 153 -88 153 7 0 16 -4 19 -10 3
-5 11 -10 17 -10 19 0 -44 60 -92 88 -25 14 -63 40 -85 58 -22 17 -71 48 -110
68 -74 39 -151 112 -161 152 -16 65 27 82 160 60 99 -15 100 -15 165 8 83 30
87 30 111 6z m2117 3 c62 -29 103 -76 103 -117 0 -20 4 -36 8 -36 4 0 19 18
32 40 14 22 33 40 42 40 46 0 89 -43 81 -80 -2 -9 -28 -30 -58 -48 -39 -24
-75 -60 -133 -135 -43 -56 -87 -108 -96 -116 -10 -8 -24 -27 -32 -43 -22 -42
-34 -25 -34 45 l0 62 -38 -80 c-33 -71 -37 -89 -36 -155 0 -41 4 -91 8 -111
12 -55 -10 -147 -44 -181 -33 -33 -83 -37 -116 -10 -22 17 -63 76 -96 136 -40
70 -13 140 101 260 134 143 172 228 175 398 1 88 5 110 20 127 23 25 65 27
113 4z m-395 -982 c125 -32 163 -45 172 -59 3 -5 -12 -28 -34 -52 l-39 -43
-31 32 c-35 34 -56 41 -45 14 4 -10 9 -36 12 -58 5 -37 2 -42 -35 -73 -23 -17
-46 -32 -52 -32 -23 0 -143 105 -156 137 -34 81 0 162 68 163 15 0 78 -13 140
-29z m-927 3 c33 -10 79 -14 135 -12 83 3 84 3 94 -23 13 -37 1 -74 -39 -118
-125 -138 -425 -94 -425 62 0 91 105 131 235 91z m457 -15 c39 -20 43 -20 97
-5 54 16 57 15 72 -3 21 -26 33 -130 20 -179 -18 -66 -75 -103 -185 -123 -37
-6 -89 -9 -116 -7 -55 6 -110 40 -110 69 0 11 27 74 60 139 71 138 85 148 162
109z m329 -278 c43 -33 83 -48 142 -54 32 -3 69 -13 83 -21 44 -30 44 -102 -1
-132 -22 -14 -29 -14 -82 2 -82 24 -177 22 -230 -5 -23 -11 -44 -21 -46 -21
-9 0 -69 132 -64 143 3 8 23 17 46 21 31 5 48 15 72 46 36 45 46 48 80 21z
m-924 -12 c16 -7 89 -12 170 -13 140 -1 142 -1 184 -31 24 -17 52 -45 62 -63
19 -32 19 -33 1 -54 -29 -32 -105 -78 -130 -78 -13 0 -65 11 -116 25 -105 28
-137 30 -219 13 -47 -10 -63 -9 -84 2 -52 28 -74 101 -46 153 26 48 115 71
178 46z m612 -93 c35 -18 111 -101 111 -121 0 -15 -113 -78 -123 -68 -3 3 -3
18 0 34 5 28 5 29 -28 23 -19 -4 -43 -11 -53 -17 -16 -8 -18 -7 -10 9 5 11 8
46 7 79 -2 38 2 62 10 67 19 12 55 9 86 -6z"/>
</g>
</svg>
